<svg id="arena" xmlns="http://www.w3.org/2000/svg" xmlns:xlink="http://www.w3.org/1999/xlink" width="296.1" height="51.7" viewBox="0 0 296.1 51.7"><style>.st0{clip-path:url(#SVGID_2_);fill:url(#SVGID_3_)}</style><defs><path id="SVGID_1_" d="M198.5 26.5c.3-.8.5-1.6.8-2.3.2.7.5 1.6.7 2.3l1.2 3.4h-3.9l1.2-3.4zm-1.4-8.7l-8 20.8-.2.4h5l1.6-4.6h7.1l1.6 4.6h5.2l-8-21-.1-.2h-4.2zm20.9 4.5h5.1c1.8 0 2.7.8 2.7 2.3 0 1.6-.9 2.4-2.7 2.4H218v-4.7zm-4.7-4.5V39h4.7v-7.4h3.7l3.7 7.4h5.4l-4-8.1c2.6-1.1 3.8-3.2 3.8-6.2 0-4.1-2.9-6.8-7.4-6.8h-9.9zm21.6 0V39h15.3v-4.6h-10.6V30h5.9v-4.6h-5.9v-3h10.2v-4.6h-14.9zm32.3 0v12.5c-.3-.4-.6-.9-.9-1.3l-7.4-11-.1-.1h-4.4v21.2h4.6V26.3c.3.4.6.9.8 1.3l7.7 11.5h4.1V17.8h-4.4zm17.8 8.7c.3-.8.5-1.6.8-2.3.2.7.5 1.6.8 2.3l1.2 3.4h-3.9l1.1-3.4zm-1.4-8.7L275.5 39h5l1.6-4.6h7.1l1.6 4.6h5.2l-8-21-.1-.2h-4.3z"/></defs><clipPath id="SVGID_2_"><use xlink:href="#SVGID_1_" overflow="visible"/></clipPath><linearGradient id="SVGID_3_" gradientUnits="userSpaceOnUse" x1="-445.32" y1="444.98" x2="-444.429" y2="444.98" gradientTransform="matrix(120.1788 0 0 -120.1788 53707.059 53505.543)"><stop offset="0" stop-color="#0d8648"/><stop offset=".5" stop-color="#1e988a"/><stop offset=".631" stop-color="#1e9a8d"/><stop offset=".746" stop-color="#1ca098"/><stop offset=".855" stop-color="#1aaaaa"/><stop offset=".96" stop-color="#17b7c3"/><stop offset="1" stop-color="#16becf"/></linearGradient><path class="st0" d="M189 17.8h107.1V39H189z"/><path d="M39.8 27.5v.3c.1.1.2.2.4.1s.2-.2.3-.4c-.1-.3-.6-.3-.7 0M21 18.1c-.2.7-.5 1.6-.1 2.2.2 0 .1-.2.2-.3.3-.6.4-1.3.2-1.9-.1-.2-.3-.2-.3 0m23.2 11.2v.1c.1 0 .2 0 .2-.1.9 0 1.7-.2 2.3-.7 0-.1-.1-.1-.1-.2-.9-.1-1.8.2-2.4.9m-.3-1.8c-.9-.1-1.9-.1-2.5.6l.1.1h.9c.6 0 1-.3 1.5-.6v-.1zm-.3 1.7c.2-.1.3-.2.3-.5-.1-.2-.4-.2-.5-.1-.1.1-.2.2-.1.3 0 .2.1.3.3.3m-15-15h-.2l-.1-.2-.1.2H28l.1.1-.1.2h.2v.2l.2-.1.2.1v-.2h.2l-.1-.1-.1-.2zm-7.9 6.6c-.1 0-.2.2-.1.3.1.1.2.2.4.1.1-.1.2-.2.2-.3-.1-.2-.3-.2-.5-.1m7.3 7.1c.6-.7 1-1.6 1.2-2.5.1-.1 0-.3.2-.4 0-.3.2-.6 0-.8.1-.4-.5-.7-.1-1h-.1l1.1-.7c-.1.4-.3 1.1-.1 1.4.1.3.3.7.1.9-.8 1-1.3 2.2-1.8 3.3-.3.2-.4 0-.5-.2m.1 1.7c-.1.2-.2.4-.2.6h-.1c.1-.3-.2-.4-.1-.7-.1-.2-.1-.5-.3-.7-.2-.3.1-.4.3-.6.2.1.3.3.5.5.1.4-.1.6-.1.9m-1.1-2c-.6-1.2-1.3-2.2-2.2-3.1 0-.2-.2-.3-.1-.5.3-.3.4-.9.2-1.3 0-.1-.1-.2-.1-.3l-.1-.1 2.6 1.7c.1.1.2.2.4.2.1 0 .3-.1.4-.1l.9-.6c-.7 1 .4 2.4-.4 3.3v.1c-.2.3-.4.6-.7.8-.4-.2-.6-.6-.8-1-.4-.4-.4-1.1-.2-1.6s-.1-.9-.2-1.4l-.2-.1c-.4.5-.6 1.4-.2 2 .2.3.2.7.4 1 .2.5.5.8.7 1.3.1.2-.1.2-.2.3-.1-.2-.1-.4-.2-.6M24.3 24c-1.8-1.3-3.7-2.5-5.7-3.4.2-.5.3-.9.4-1 0-.3.1-.5.1-.8.1-.3.1-.8.1-1.2.1-.6.3-1.1.5-1.6.1-.3.2-.5.3-.8.1-.3.1-.6.3-.9.5.3 1 .3 1.3.9V19c0 .9.4 1.7.9 2l1.9 1.2c.2.7-.2 1.2-.1 1.8m-3.2-11.3c.1-.4.2-.8.6-1 .1 0 .1.1.1.1v1.9c-.2-.3-.9-.6-.7-1m1 4.2s.1.1.1 0c.4-.3.3-.9.3-1.4.1-.5-.3-.8-.4-1.3v-3.9H24c.1.1.3.2.4.2l.1-.2h8.8v8.9c-.1.7-.3 1.3-.8 1.6L28 23.7c-.1.1-.2.1-.3.1-.1 0-.3 0-.4-.1l-4.5-2.8c-.5-.3-.7-.9-.8-1.6v-2.4zm11.5-3.4v1.6c.5.9 1.2 1.9 2.2 2.3.5.4 1.2 1 2 .6.4-.1.4.4.6.7.2.6-.3 1.1-.3 1.7-.1.2-.2.3-.4.4-.3.1-.5.2-.8.2-2.2.9-4.5 1.8-6.3 3.5.1-.2.2-.5.2-.7 0-.3 0-.6-.2-.8 0-.1-.1-.3-.1-.5l2.1-1.4c.5-.2.9-1.1.9-2l.1-5.6zm6.1 5.6c.1-.1.2-.3.3-.5 0-.2-.1-.2-.2-.4.1-.1.3-.1.5-.1.4.3.9.7 1 1.1-.7.3-1.4.6-2.1.8.1-.2.3-.6.5-.9m1.8.9v.6h-1.7s-.1 0-.1-.1c.6-.2 1.1-.5 1.8-.7v.2zM54 22.5c-.4 0-.8.3-1 .7-.1.4 0 .7.3.9.1 0 .3 0 .3-.1.1-.2-.2-.2-.2-.4-.1-.2 0-.4.2-.6.2-.2.5-.1.7-.1.2.1.4.3.5.5.1.3.1.6 0 .9-.2.4-.6.8-1.1.9-1.4.2-17 .1-17 .1-1.8.2-3.9-.3-5.5.6-.7.3-1.1 1.1-1.3 1.8-.5.4-1 .9-1.3 1.4l-.1-.1c.1-.4.3-.8.4-1.2.3-.3.3-.8.4-1.2.6-1 1.3-2.1 2.3-2.9.4-.6 1.2-.5 1.8-.5.7.3 1.5.4 2.4.3l.1-.1c-.2-.2-.6-.3-.9-.5-.7-.3-1.3.1-2 0 0 0-.1 0-.1-.1.6-.5 1.4-.8 2.1-1.1.6-.3 1.2-.5 1.9-.7.3 0 .5-.2.7-.1-.5 1-1 2.1-1.8 2.9-.3 0-.4.3-.7.3-.1.2-.4 0-.6.1-.5.2-1.3.1-1.6.6 0 .1.1.1.1.1 1 0 2.2.1 3.3 0 .1-.1.3-.2.3-.3-.2-.3 0-.5.2-.8.1-.4.4-.7.5-1.1l1.2-2.1.1.1c.8-.3 1.7 0 2.6 0l.1.1c.1.8-.1 1.7-.2 2.5-.3 1-1.4.9-2.3 1.1-.2.1-.6.1-.6.4 1 .2 2.2.1 3.2.1.2-.1.2-.2.3-.4 0-.2.3-.4.2-.7-.2-.2 0-.6-.1-.9v-.3c.1-.5.1-1.1.2-1.6.3 0 .4.4.8.4.2-.2-.2-.3-.3-.5.4-.1.8 0 1.1.2l-.2.2c-.1.2 0 .3.2.4.1 0 .2-.1.3-.1.2-.2 0-.3.1-.4 1.3.2 2.5.5 3.6 1 .3.1.6.3 1 .3-.4-.3-.9-.5-1.3-.7-.3-.2-.7-.2-.9-.4.1-.1.2 0 .2-.1.6-.1 1.1-.5 1.5-1 0-.1.2-.1.2-.2-.2-.2-.4.1-.6 0-.7.1-1 1-1.7 1.1-.9-.2-1.8-.4-2.6-.6-.4-.1-.9-.1-1.3-.3 0-.3.1-.6.1-.9.1-.1.1-.2.1-.4 0-.1.1-.1.2-.2l.4-.2c.4-.1.9 0 1.4 0 .3.1.6.1.9.2.1-.1.3-.1.4-.1.5-.3.2-.9.2-1.4.5-.4.9-.9 1.3-1.4 0-.1-.1-.3-.2-.3s-.3 0-.3.1c-.2.2 0 .3 0 .5-.2.3-.5.5-.8.7 0 0-.1 0-.1.1v-.1c-.1-.1-.1-.2-.1-.3-.1-.1-.2-.3-.3-.5-.3-.8-.9-1.2-1.3-1.8-.9-1.1-2.2-1.8-3.6-2.2-1.3-.5-2.7.1-3.9.6-.4-.1-.6-.4-.7-.7-.1-.7.1-1.3.3-1.8.1-.4.3-.8.5-1.1.3-1 .6-1.9.7-3 0-.6-.4-1.1-.9-1.4-.3-.1-.7-.1-.9.2-.2.5-.7.8-1.1 1 0 .3.3.1.4.2.4.1.8-.1 1.1.2 0 .7-.4 1.3-.7 1.8-.6.9-1.2 1.7-1.6 2.7v-.9h-8.1c-.4-.1-.7-.6-1.2-.6-1-.4-1.6.6-2.6.5-.1.1-.1.2-.2.3h-.2c0-.4-.2-.8-.2-1.2-.1-.2-.1-.4-.1-.6-.5-1.5 1.3-.4 1.7-1.2.3-.8-.6-.8-.9-1.4v-.1c-.3-.3-.6-.4-.7-.7.1-.4.2-.9.1-1.3 0-.1-.1-.2-.2-.2l-.9 1.2c-.3-.2-.6-.5-1-.8-.3 0-.5-.3-.8-.2-.1.1 0 .2.1.3 0 .7.4 1.2.8 1.7l.1.3c-.3.7-.2 1.5-.3 2.3-.8 2-2 3.9-3.7 5.2-1 1.1-2.1 2.2-2.3 3.7 0 .2 0 .5-.2.7-.6-.2-1.1-.5-1.6-.8-.8-.5-1.9-.5-2.4-1.5-.2-.5 0-.9.2-1.2.6-.5.5-1.5.2-2.2-.1 0-.1.1-.1.1-.1 1-.9 1.7-.5 2.8.1.3.2.5.3.8-.1 0-.3 0-.4-.1-.4-.1-.8-.2-1.1-.2-.8.4-1.9-.1-2.5.6-.1 0-.2 0-.2.2.4 0 .7.1 1.1.1.6.1 1-.4 1.4-.6h.1c.2-.2.5-.1.7-.1 1.1.1 1.9.6 2.8 1.2v.1c-.3.2-.7.3-1.1.4-.4.3-.8.7-1 1.2-.3.4.1.8.3 1.2 0 .2 0 .4.2.4.5-.6 0-1.3.1-2 .1-.5.6-.8 1.1-.9 1-.4 1.7.4 2.5.8 0 .8.1 1.5-.1 2.3-.2.1-.5.1-.8.1-1.3.1-2.4.8-3.6 1.3-.5.2-1.2.2-1.7.4.4.1.9 0 1.3-.1 1.7-.2 3-1.5 4.8-1.3v.1c-.2.4-.5.8-.8 1.1-.1-.2-.1-.3-.2-.4-.1-.1-.3 0-.4.1-.1.1-.1.2 0 .3.1.2.2.2.4.2 0 .2-.2.2-.3.4-.5.8-1.5.5-2 1-.1.1-.4.2-.3.4.6.1 1.3-.1 1.8-.4.6-.7 1.3-1.4 1.9-2 .1.5-.1 1.1-.4 1.6-.2-.1-.3-.2-.5-.3-.2 0-.3.2-.3.3.1.1.1.3.3.3-.6.4-1.3.4-2 .6-1.2.2-2.5.3-3.7.3-.6 0-1.3.2-1.8 0-.6.1-1.3-.1-1.9.3-.1.1 0 .2 0 .3.8.5 1.9.1 2.7.3H12c.5 0 1 0 1.4-.3.9-.5 1.3-1.4 1.8-2.3.2-.3.3-.7.4-1 .2-.6.7-1 1.3-1 .1.9-.1 1.8-.3 2.6-.1.5-.5 1.1-.2 1.7.1.3.3.3.6.3 2.1 0 4.1-.1 6.3 0 .4.1.7.2 1.2.2 0-.1.2-.1.1-.2-.1-.2-.2-.4-.4-.5 0-.1-.2-.1-.2-.1-1.1-.6-2.4-.3-3.7-.3-.7.1-1.3.2-1.9-.2-.3-.3-.1-1.3-.1-1.3 0-.2.3-1.1.5-1.9.5.1 1.8.9 1.8.9.6.2 1.1.6 1.7.9 2.3 1.3 3.9 3.4 4.9 5.8 0 .2.2.4.1.6-.4-.5-.9-.9-1.3-1.3-.1-.8-.6-1.6-1.3-1.9-.3-.4-.8-.4-1.2-.5h-6.2c-5.1-.1-9.7.2-14.7.1-.7-.1-1.6-.3-1.8-1-.1-.3-.1-.7 0-.9.2-.3.5-.4.9-.5.3 0 .5.3.6.5 0 .2-.2.4-.3.6 0 .1.1.2.2.2.2-.1.4-.3.4-.5 0-.1.1-.3-.1-.4-.1-.4-.5-.6-.8-.7-.4 0-.9.1-1.2.4-.4.3-.4 1-.3 1.4.3.8 1.1 1.3 1.8 1.4l16.5-.1c1.6.1 3.4-.2 5.1.1.6.2 1.2.6 1.4 1.3h-.1c-1.3-.9-3.1-1.2-4.8-1-.7 0-1.3.2-1.9.4-.3.1-.6-.1-.8-.3-.6-.5-1.7-.5-2.5-.3v.1c.8-.1 1.3.7 2.1.7.2 0 .3-.2.5 0-.8.4-1.5.8-2.4 1.1-.3-.1-.4-.3-.6-.4-.3-.4-.9-.2-1.4-.2-.2 0-.3-.1-.4 0 .1.3.4.4.7.6.4.2.9 0 1.3.2-.1.1-.2.2-.4.2-.8.3-1.5 1-2.4 1-.9.1-1.9-.2-2.5-.8-.3-.7-1-1-1.7-1-.1 0-.1 0-.1.1.4.2.7.7 1 .9.2.3.7 0 .9.3.3.2.7.4 1.1.5.3.1.6.2.9.2l-.1.1c-1.6.5-3.3.6-5.1.5-.5 0-1-.2-1.5-.2.1.1.3.2.4.2-.1.1-.3.1-.5.1-.2.1-.4.1-.6.2-.3 0-.5.1-.7.2-.3.3-.6.6-1 .8 0 .1 0 .2.1.2.3-.1.7 0 1.1-.2.6-.1.9-.7 1.3-.9.5-.4 1.2-.3 1.7-.2.3.1 0 .2.1.4.1.1.3.3.4.2l.1-.1c.1-.1.1-.3 0-.4.2-.2.6 0 .8-.1.6 0 1.3-.2 1.9-.2.1 0 .2-.1.3 0 0 .1-.2.2-.2.3 0 .2.2.2.3.3.2-.1.3-.2.3-.4 0-.1-.2-.1-.3-.2.4-.2.8-.2 1.1-.4.3-.1.5-.1.7-.2.2 0 .4-.2.6-.1-.1.3-.2.6-.4.8-.3.9-.5 2.1 0 3h.1c-.4-.9-.2-2 .2-2.8.2-1.5 1.7-1.9 2.8-2.4v.1c-.3.8-.7 1.5-.6 2.4 0 .2-.1.3 0 .4.3-.2.5-.5.6-.8.1-.8-.3-1.7.5-2.3 1.4-.5 2.7-1.3 4.3-1.3.1 0 .2 0 .2.1-.3.4-.8.7-1 1.2-.5.8-.5 2-.3 3 .2.5-.3.8-.5 1.2-.1.1-.1.4-.2.6h.3c.3-.3.6-.7.6-1.1 0 .2.2.3.3.3.1-.2-.1-.3-.1-.5.3-.2.4.2.6.3.4.1.7.2 1 .2l.1-.1c-.4-.6-1.1-.7-1.8-.7-.3-.6-.3-1.3-.3-2 .1-.4.1-.7.3-1.1.1-.2.3-.5.5-.7.3-.3.7-.5 1.1-.6-.5.4-.5.9-.8 1.3-.3.4-.4 1-.2 1.5.1.2.1.6.3.7.2-.3.2-.7.4-1-.1-.6-.4-1.1-.1-1.7.2-.4.5-.6.9-.8.9-.1 1.8.4 2.6.8.2.1.5.2.5.5 0 .5-.3.9-.6 1.2-.5.3-1.1.3-1.6 0-.3-.3-.4-.7-.3-1 .2-.2.4-.4.8-.3.2.1.3.3.5.2.1-.1.1-.2.1-.3-.2-.1-.3-.4-.5-.4-.3-.1-.7 0-.9.2-.4.3-.5.8-.4 1.2.1.6.5.9 1.1 1.1.8.2 1.6 0 2.1-.7.2-.2.3-.5.4-.7.8.5 1.4 1.4 1.8 2.3 0 .3.1.6 0 .9l.6.1c0-.1 0-.3.1-.4.2-1.1.9-2.1 1.8-2.8.3-.2.2.2.3.3.3.7.9 1.1 1.5 1.3.7.1 1.4-.1 1.8-.6.2-.4.5-1 .1-1.4-.2-.3-.6-.4-.9-.4-.4 0-.7.3-.9.6 0 .1 0 .3.1.4.1 0 .2 0 .3-.1 0-.3.3-.4.5-.5.2-.1.4 0 .5.1.2.2.2.4.2.7 0 .3-.3.7-.6.8-.5.3-1.2.1-1.6-.2-.2-.2-.3-.5-.5-.8 0-.3-.1-.5 0-.8.7-.4 1.5-.8 2.4-.9.4.1.7.3.9.6.8.8-.2 2 .4 2.9.2 0 .2-.3.3-.5.3-.6-.1-1.3-.2-1.9-.2-.4-.3-.7-.6-1h.2c.4.2.8.5 1 .9.5.8.8 1.8.7 2.8-.1.5-.7.8-1.1.9-.2.1-.4.3-.5.6.2.1.5 0 .7-.1.3-.1.5-.5.7-.7v.1c0 .2-.1.4.1.5.1-.2.1-.6.2-.9.2.2.3.5.3.9.2.3.4.7.8.8.1-.2 0-.3 0-.4-.1-.4-.4-.7-.6-1-.6-.8-.3-2.1-.8-3-.2-.5-.5-.9-.9-1.3l.1-.1c.8 0 1.5.3 2.3.4.9.5 2.3.4 2.7 1.6.2.7.5 1.3 1 1.9h.1c.1-.2.1-.5 0-.6-.1-.9-.9-1.1-1.2-1.8l.1-.1c.4.1.8.2 1.2.4 1.4.4 2.3 1.7 2.5 3.1 0 1.1-.2 2-.6 2.9-.1.1-.3.3-.1.4.2-.1.2-.4.3-.5.6-.9.9-2.3.6-3.5 0-.2-.3-.4-.2-.6.1.1.2.1.3.2.1-.1.3-.1.3-.2s.1-.2 0-.3c-.1-.2-.3-.2-.5-.1-.1.1-.2.2-.2.4-.2-.3-.3-.7-.6-.9.8.3 1.5.6 2.3.8.2.1.4.2.6.2.7.3 1.4.4 2.1.5.5-.1.9.2 1.5.1-.2-.2-.6 0-.8-.2-1.2-.1-2.3-.4-3.4-.8 0-.1.1 0 .1 0 .2-.1.3-.2.3-.4-.1-.1-.2-.2-.4-.2-.1 0-.2.2-.3.3 0 .1.1.3.3.3h-.2c-.5-.2-1-.5-1.6-.7-.2 0-.3-.2-.5-.2-.4-.2-.8-.4-1.2-.5-1.1-.6-2.3-.9-3.5-1.3-.3-.1-.5-.1-.7-.2-.4-.1-.9-.2-1.3-.3-1.5-.4-3.4-.4-4.7.4-.2-.1-.3.3-.4.1.4-.9 1.4-1.3 2.3-1.3 6.8-.1 13.3-.1 20-.2.8 0 1.6-.3 2-1 .3-.4.3-1.1.1-1.6-.1-1.1-.6-1.3-1.1-1.3m-30.9-5.8h3v4.9l-2.3-1.4c-.4-.3-.6-.7-.6-1.3v-2.2zm0-2.1h1v1.9h-1v-1.9zm.1-.6l.1-.1-.1-.1h.2l.1-.2.1.2h.2l-.1.1.1.1h-.2v.2l-.1-.1-.1.1V14h-.2zm-.1-2.8h1v2h-1v-2zm1.3 4.7l.1-.1-.1-.1h.2l.1-.2.1.2h.2l-.1.1.1.1h-.2v.2l-.1-.1-.1.1v-.2h-.2zm0-2.4c.3 0 .2.3.3.3 0 0 0-.3.2-.3.3 0 .6.7.3.7-.1 0 0-.1 0-.1l-.1-.1c-.1 0-.1.2-.2.2s-.1 0-.1-.1c0 0 .1-.1.2-.1-.6 0-.6.3-.7.3-.2 0 .1-.3.2-.4-.1 0-.2-.2-.3-.3.1-.1.1-.1.2 0-.2 0-.2-.1 0-.1m0-1.8h.2l.1-.2.1.2h.2l-.1.1.1.2h-.2v.2l-.1-.1-.1.1V12h-.2l.1-.1-.1-.2zm1.7 4.8h-.8v-1.9h.8v1.9zm-.6-2.8h.2l.1-.2.1.2h.2l-.1.1v.2h-.2v.2l-.1-.1-.1.1V14h-.2l.1-.1v-.2zm-.3-2.5h.8v2h-.8v-2zm1.1 0h2.8v5.2h-2.8v-5.2zm3 0h3v5.2h-3v-5.2zm3 7.8c-.1.6-.2 1-.6 1.3l-2.3 1.4v-4.9h3V19zm-3.2 2.8l-1.1.7c-.1.1-.2.1-.3.1s-.2 0-.3-.1l-1.1-.6v-5.1H29v5zm-5.5-1.3l3.8 2.3c.1.1.2.2.3.2.1 0 .2 0 .3-.1l3.8-2.3c.4-.2.8-.9.8-1.6v-7.9h-9.8V19c0 .6.3 1.3.8 1.5m-.7.1c.1 0 .2-.1.2-.2l-.2-.3-.2.3c0 .1.1.2.2.2m1-1.2c.2 0 .2-.1.2-.2 0 .1.1-.1.1.1s-.2.1-.2.3c0 .2.3 0 .3.2v.4c0 .1.3-.1.3-.1.1 0 .1.3.2.3s.1-.2.2-.3c0 0 .3.2.3.1 0-.3-.1-.2-.1-.4s.4-.1.3-.2c-.1-.1-.1 0-.1-.2 0 0-.3-.5.1-.2s.4-.6.4-.7c0 0-.2 0-.3.1 0-.1.2-.3.3-.4 0-.1-.2 0-.3.1.6-.8.2-.5-.1-.4.5-.5.4-.5 0-.4.3-.2.3-.5.3-.6-.3.4-.5.3-.5.6 0 .2-.1.6-.2.7-.1.2 0-.6-.4-.6-.1 0-.4 0-.5.1.1 0 .2.2.2.3 0 .1.1.3-.1.3-.1 0-.3-.3-.3-.4v-.3c0-.3-.5-.8-.7-.8 0 .2.3.3.3.6-.1 0-.3-.2-.3-.1s.2.2.2.3c0 .1-.2 0-.2.1s.1.1.1.2h-.2s0 .1.1.1c0 0-.1.1-.1.3 0 .8.4 1.1.7 1.1m-1.3-1.7l-.2-.3-.2.3c0 .1.1.2.2.2.2 0 .2-.1.2-.2m-2.5 2.7c-.2 0-.3.1-.3.3 0 .2.1.3.3.3.2 0 .3-.1.3-.3 0-.2-.2-.3-.3-.3m2.4-9.5c.1 0 .2-.1.2-.2l-.2-.3-.1.3c-.1.1 0 .2.1.2m.1 3.4l-.2-.3-.2.3c0 .1.1.2.2.2.2-.1.2-.1.2-.2m18.2 12.3c-.8-.2-1.7-.1-2.3.5v.1c.6 0 1.3 0 1.8-.3.1-.2.5-.1.5-.3M7 23.1c.1 0 .3.1.3-.1 0-.1.1-.2.1-.3 0-.2-.2-.2-.3-.3-.1.1-.2.1-.3.2 0 .2.1.4.2.5m.7.1c-.2.1-.2.2-.2.4.1.1.2.2.4.2.1-.1.2-.1.3-.3l-.1-.1c0-.2-.2-.3-.4-.2m-1.1.6c.1.1.2.2.4.1.1-.1.2-.2.2-.3-.1-.1-.2-.2-.3-.2-.2 0-.4.2-.3.4m.4-3.1c.5.5 1.2.8 2 .5.1 0 .3 0 .2-.2-.6-.4-1.4-.3-2.1-.5-.1.1-.1.2-.1.2m13.6 2.6c.2 0 .3-.1.3-.3 0-.2-.1-.3-.3-.3-.2 0-.3.1-.3.3-.1.1.1.3.3.3m-9.6-.6c0-.1.1-.2 0-.3-.1-.1-.2-.2-.3-.2-.1 0-.1.1-.2.2 0 .1-.1.4.1.4.1.1.3 0 .4-.1m-2.6.3c.2-.1.1-.2.2-.3-.1-.2-.3-.3-.5-.2 0 0-.1.1-.1.3.1.1.3.3.4.2m11.9-.8c0-.1-.1-.3-.3-.3-.2 0-.3.1-.3.3 0 .2.1.3.3.3.2-.1.3-.2.3-.3m-9.6 5.6c-.1.1-.2.2-.1.4.1.1.2.2.4.2.2-.1.2-.2.2-.3-.1-.2-.3-.5-.5-.3m.1 1.2c0 .1.1.2.2.3.1 0 .2 0 .3-.1.1-.1.1-.2.1-.4-.1-.2-.3-.1-.4-.1-.1 0-.2.1-.2.3m-4.2.6c-.1.1-.2.1-.2.2-.1.2.1.2.1.3h.3c.1 0 .1-.2.1-.3 0-.2-.2-.1-.3-.2m1.8.4v-.1c-.6-.5-1.2-1.2-2-1.2-.1 0 0 .1 0 .2.4.2.7.5.9.9.3.2.7.3 1.1.2m11.2-7.4c-.2 0-.3.1-.3.3 0 .2.1.3.3.3.2 0 .3-.1.3-.3 0-.2-.2-.3-.3-.3m-7.7 6.5c.1.1.2.2.3.2.1-.1.3-.1.2-.3-.1-.1-.2-.2-.4-.2 0 .1-.2.2-.1.3m3.7-1.5c.2-.1.2-.1.3-.3 0-.1-.2-.2-.3-.3-.1.1-.3.2-.2.4 0 .1.1.2.2.2m-3.8.3c-.1.1-.2.1-.2.2-.1.1 0 .2.1.3.1.1.2.1.3 0 0-.1.1-.1.1-.2-.1-.2-.2-.2-.3-.3m8.4 6l.2 1c.1.3.2.4.4.5.3.1.6 0 .7 0 .2 0 .5-.2.6-.4.1-.2.1-.4.1-.6l-.2-.9c0-.2 0-.2.2-.3v-.1l-.7.2v.1c.3-.1.4 0 .4.2l.2.9c0 .2.1.6-.5.8-.5.1-.6-.3-.6-.4l-.2-.9c-.1-.3 0-.3.3-.3v-.1l-1.1.3v.1c.1-.3.2-.3.2-.1M35.9 20c.2-.5.2-1.1 0-1.6-.1-.1 0-.4-.3-.4 0 .3-.1.6-.2.9.1.4.2.8.4 1.2l.1-.1zm.4.6c.2 0 .3-.1.3-.3 0-.2-.1-.3-.3-.3-.2 0-.3.1-.3.3 0 .2.2.3.3.3m-1.6.5c0 .2.1.3.3.3.2 0 .3-.1.3-.3 0-.2-.1-.3-.3-.3-.1 0-.3.2-.3.3m-.4-.3c.2 0 .3-.1.3-.3 0-.2-.1-.3-.3-.3-.2 0-.3.1-.3.3 0 .2.1.3.3.3m1.5 13.4l.3.7-.7-.1.4-.6zm-1.1 1.3l.7.1v-.1c-.1 0-.3 0-.3-.2l.2-.4.8.1c0 .1.1.3.1.4 0 .1-.1.1-.3.1v.1l1.1.1v-.1c-.2 0-.2-.1-.3-.4l-.6-1.6H36l-.9 1.5c-.1.3-.2.4-.4.4m-9.8-13.6c0 .1.1.1.1.1.1 0 .2-.1.2-.2l-.2-.3-.1.4m.3 10.2c1.5 0 3.1-.1 4.6.2.5 0 .9.1 1.3.2 1 .1 1.8.4 2.8.4.2.1.3.1.5.1 1.5.2 3.3.7 4.7 0 0 .6-.3 1.2-.3 1.8-.1.2 0 .4-.2.6 0 .3-.3.5-.5.6-2 .4-4-.2-6-.6-2.7-.6-6-.8-8.8-.1-1.3.2-2.6.5-3.9.9-.8.1-1.6.2-2.4 0-.6-.3-.4-1.1-.5-1.6 0-.4-.1-.8-.1-1.2-.1-.1-.1-.3-.1-.4.3 0 .5.2.8.3 1.4.3 2.7-.2 4-.4 1.5-.4 2.8-.7 4.1-.8m13.2.6c0 .3-.2.2-.4.3h-.4c-.1-.1 0-.3 0-.5.2.1.5.1.8.2m-.2-.4c.2-.2-.1-1.3.5-.6 0 .1 0 .3-.1.4-.1.1-.3.2-.4.2m-.3-1.6c.3-.1.7-.1 1 0 .2.1.5.2.6.4.3.2.2.7.1 1-.2.3-.4.5-.7.6 0-.4.4-.7.3-1.2-.2-.3-.7-.4-1.1-.3-.2.1-.1.3-.1.4l-.1.6c-.3 0-.4-.3-.5-.5 0-.5.1-.8.5-1M30.2 36c.1.2.2.5.2.8-.2.3-.5.3-.8.4-.2 0-.3 0-.4-.1 0-.1 0-.1-.1-.2 0-.2-.4-.4-.1-.6.2-.3.9-.9 1.2-.3m.4.1c.2.1.2.3.2.4 0 .4-.2.7-.6.8-.2.1-.5.1-.7.1.4 0 .9-.2 1-.6l.1-.7zm.4 2.3c-.5.1-.9-.2-1.2-.5v-.1c.4.1.8.4 1.2.6m-.6 1.6c0 .1-.1.1-.1 0-.5-.7-.8-1.3-1.1-2.1h.1c.3.7.7 1.4 1.1 2.1m-.9-.4c-.2 0-.1-.2-.1-.3.1 0 .2.1.1.3m-.5-1.1c0 .2.2.2.1.4 0 0-.1-.2-.1-.4m-.1-1.1zm-.9 2.5c-.3 0-.8.2-1.1-.1 0-.1-.1-.2-.1-.3.3-.1.5.2.8 0 .4 0 .8-.1 1.2 0 .2.1.5-.3.5.1-.3.5-.9.2-1.3.3m-.8-2l.1-.1c-.1.4-.3.8-.6 1.2-.1-.4.3-.8.5-1.1m.5-.4c.2-.2.4.1.5.3.3.4.9.7.7 1.2-.3.3-.8 0-1.2.2-.2 0-.5 0-.6-.2.1-.3.3-1 .6-1.5m-.1-.6v-.1c.1 0 0 .1 0 .1m.4 0c.1-.1.2-.3.3-.3v.1c-.1.1-.2.2-.3.2m.3.3h.2-.2zm.4.5v.1l-.4-.3c.2 0 .3.1.4.2m0-1zm.7-1.1c-.2.1-.4.3-.6.4.1-.2.4-.4.6-.4m-.9-.2c0-.2.2 0 .2-.1h.5c-.2 0-.5.6-.7.1m-1.2.5c.1-.2.1-.4.3-.6.2 0 .3 0 .5.1 0 .3.5.8 0 1.1-.2.1-.4.2-.5.1-.3-.3-.4-.5-.3-.7m-.3 1c0-.1 0-.2.1-.2.1-.1.2.1.2.1 0 .1-.2.1-.3.1m0-.8v-.2.2zm-.2-.5c-.2-.1-.3-.3-.6-.3.2-.1.4-.1.6 0 .2.1 0 .2 0 .3m-.2 1.4c.1-.2.2-.5.3-.7 0 .2-.1.5-.3.7m-.2.5zm-1-.7c-.2-.2 0-.4 0-.6.2-.4.9-.6 1.2-.2-.1.4-.2.7-.4 1-.2 0-.5-.1-.8-.2m.6 1.7c-.2.5-.5 1.1-.8 1.6 0 .1-.2.1-.3.1 0-.2.2-.4.3-.6.4-.5.5-1 .9-1.4.1.1-.1.1-.1.3m-1.6-.2c.4-.2.8-.5 1.3-.4-.4.3-.9.4-1.3.4m.6-1.2c-.1-.6.2-1.1.5-1.5.2-.1.5-.1.7 0-.4.1-1 .2-1.1.8 0 .2-.1.3.1.5.2.3.6.2.9.4 0 .1-.1.2-.2.2-.3-.1-.6-.2-.9-.4m-8-5.5c.1-.1 0-.3.2-.4.1 0 .3 0 .3.1 0 .2 0 .4-.1.6-.2 0-.4-.1-.4-.3m.9.7c.1.2.1.4-.1.6-.3-.1-.7 0-.8-.3 0-.1-.1-.3 0-.4.3.2.6.1.9.1m-1.7-.6c0-.3.1-.6.4-.9.4-.2 1-.2 1.3.1l.3.3c.1.3-.1.6-.3.8h-.2c0-.3 0-.6.1-.8 0-.2-.2-.2-.3-.3-.3-.1-.5.1-.8.2-.2.2-.3.5-.2.8.1.2 0 .4.1.7l-.1.1c-.1-.4-.3-.6-.3-1m16 7.3c.4.2 1.2.4 1.8.4-.1.2-.5 0-.4.3-.5-.2-1.1-.3-1.5-.7h.1m-10.6.3l-.3-.3c.1-.2.4-.1.6-.2.4-.1 1-.3 1.5-.2-.6.5-1.2.5-1.8.7m-1.7-6.6c-.3-.1-.6.2-.9.1l-.6.1h-.2c-.3-.7.5-1.1.3-1.8-.2-.4-.7-.8-1.2-.7-.6-.1-1.1.3-1.4.7-.4.9.1 1.8.3 2.6 0 .3.3.6 0 .8-.5-.4-1.3-.6-1.9-.4-.2.1-.6 0-.7.2.7.4 1.7.3 2.5.3.1 0 .2-.1.3 0 .1.4-.1 1 .2 1.4.3.4.8.5 1.3.6 1.6-.1 3-.5 4.4-.9.2 0 .4-.1.6-.1.8-.2 1.6-.3 2.4-.3-.4.5-.6 1-.7 1.6-.2.5.4.5.5.8-.5.2-.9.5-1.4.7-1.1 0-2 .4-3 .5 0 .2.4.2.4.4-.1.2-.2.2-.3.3 0 .1 0 .1.1.1.1-.1.3 0 .4-.2.3 0 .6-.1 1-.1.3-.1.6-.1.9-.3.4-.1.6-.3.9-.4.5 0 1-.2 1.5-.2v.1c-.4.6-.8 1.3-1.2 1.9-.1.1 0 .2.1.3.2.1.5 0 .7-.1.4-.6.7-1.2 1-1.8.1-.6.5-.9 1-1.3.1 0 .2-.1.2 0-.3.4-.6.8-.8 1.2-.1.5-.2 1.1.3 1.5.2.2.5.1.8.1.7-.3 1.5.2 2-.4.3-.1.4.3.5.5.3.1.6.4.9.2 0-.2-.2-.4-.3-.5-.2-.4-.5-.7-.6-1l-.3-.6c.3.1.6.3.9.4.3.1.6.1.9.3.2.3.6.5.9.7.4.2.9.2 1.3.4.2 0 .4.2.5 0-.1-.1-.2-.1-.3-.2-.1-.2.3-.1.4-.3 0-.1-.1-.1-.2-.1-.2-.1-.9-.2-1-.3-.2 0-.4-.1-.6-.2-1 0-1.6-.9-2.4-1.3.2-.2.5-.3.6-.6.2-.2.2-.6 0-.9-.2-.5-.8-.5-1.2-.8l.1-.1c.7 0 1.2.1 1.8.2 1.6.2 3.2.8 4.9.9.9 0 2.1.1 2.6-.9.1-.5.2-1.1.3-1.6.2-.9.8-1.7.7-2.6-.2-.5-.6-.9-1.2-1.1-.5-.1-1.1 0-1.5.4-.6.5-.2 1.3-.2 2 0 .1 0 .2-.1.3-2.5-.2-4.8-.8-7.2-1.1-.6-.1-1.1-.1-1.7-.2l-.7-.1c-2.1.1-4.3.2-6.3.7-.4 0-.9.1-1.3.2m13.7 1.9c-.3.3-.6.5-1.1.4-.2 0-.3-.1-.3-.2l.2-1.4c0-.3.2-.2.4-.2v-.1l-1.2-.2v.1c.2 0 .3.1.3.3l-.3 1.4c0 .2-.1.2-.3.1v.1l2 .4.3-.7zm-6-11.2c0 .1.1.2.2.2s.2-.1.2-.2l-.2-.3-.2.3m0 9.3c0-.1 0-.1.2-.1.3 0 .4.1.4.4 0 .4-.2.4-.6.4v-.7zm2.5.5l.3.7-.7-.1.4-.6zm-2.3 1.2c-.2 0-.3 0-.3-.3v-.6h.1l.7.9h.7l.7.1v-.1c-.1 0-.3-.1-.3-.2l.2-.4.8.1c0 .1.1.3.1.4 0 .1-.1.1-.3.1v.1l1.1.1v-.1c-.2 0-.2-.1-.3-.4l-.6-1.6h-.1l-1 1.5c-.1.2-.2.3-.4.3 0 0-.1 0-.1-.1l-.7-.8c.2 0 .6-.1.6-.5 0-.5-.7-.5-1-.5h-1.1v.1c.2 0 .3 0 .3.3v1.3c0 .2-.1.2-.3.3v.1l1.2-.1zm5.7.8l1.2.3v-.1c-.2-.1-.3-.1-.3-.3l.3-1.4c0-.2.2-.2.4-.1v-.1l-1.2-.2v.1c.2 0 .3.1.3.3l-.4 1.3c0 .2-.1.2-.3.2zm-9.1-2c0-.5.4-.5.6-.6l.1 1.5c0 .2-.1.3-.3.3v.1l1.2-.1v-.1c-.3 0-.3 0-.4-.2l-.1-1.5c.2 0 .6 0 .7.4h.1l-.1-.6-2.1.2v.6h.3zM8.3 16.7c0-.1.2-.2.1-.3-.1-.2-.4-.3-.6-.1-.1.2 0 .3.1.4.1.1.3.1.4 0m10.5 17.8l.4.7-.7.1.3-.8zm-.8 1.4h.7v-.1c-.1 0-.3 0-.3-.1 0 0 0-.2.1-.4l.8-.1c.1.1.2.3.2.4 0 .1-.1.1-.3.1v.1l1.1-.1v-.1c-.2 0-.2-.1-.4-.4l-.9-1.4h-.1l-.6 1.7c-.1.2-.2.3-.3.4m5.2-1.8h.2c.2 0 .4.1.5.3 0 0 .1.3-.4.4-.4.1-.7-.2-.8-.5h-.1l.2.7h.1s0-.1.1-.1h.6c.6-.1.8-.5.7-.8-.1-.3-.4-.4-.5-.4l-.5-.1c-.3-.1-.4-.1-.4-.3 0-.2.1-.3.3-.4.4-.1.7.2.8.4h.1l-.1-.6h-.1c0 .1 0 .1-.1.1h-.6c-.6.1-.7.6-.6.7-.1.2 0 .5.6.6m9.6-19.8c0 .1.1.2.2.2s.2-.1.2-.2L33 14s-.2.2-.2.3m-1.5 0h-.8c-.3 0-.3-.2-.3-.6 0-.5.5-.1.7-.5.2.6.7 0 .7.6-.1.2-.1.5-.3.5m.1-1.1l.4-1.4-1 .4-1-.4.4 1.4-.7-.2.2.8-.2.9.8-.2-.4 1.5 1-.4 1 .4-.3-1.5.7.2-.3-.8.3-.9-.9.2zM27.5 12c.2 0 .5-.1.5.3 0 .2-.3.1-.5.1s-.5.1-.5-.1c.1-.4.3-.3.5-.3m-.4.8s0 .1 0 0l.8.1c.1 0 .1 0 .1-.1v-.2c.1-.1.2-.2.2-.4 0-.7-.4 0-.6-.6-.2.5-.6.1-.6.6 0 .2.1.3.2.4v.2zm3.8.8c-.2 0-.5-.1-.5.2 0 .2.3.1.5.1s.5.1.5-.1c0-.3-.3-.2-.5-.2m-2.9-.1l.1-.1h-.2l-.1-.2-.1.2h-.2l.1.1-.1.1h.2v.2l.2-.1.2.1v-.2h.2l-.3-.1zm2.1 5.5c-.1.3-.1.7-.5.9-.1.1-.1.2-.1.3l.1.1c.2-.1.6-.1.6-.5.1-.1.2-.3.3-.4.2 0 .3 0 .4.2 0 .2-.2.4-.4.5v.1c.1.1.2.1.3 0 .3-.2.4-.5.6-.6 0 .2-.3.2-.1.4.1 0 .3 0 .4-.2-.1-.3.4-.4.1-.7 0-.2.3-.3.2-.6-.1-.3-.4-.3-.5-.5.1-.1.2-.1.3 0 0 0 .1.1.2 0l.1-.3s-.1-.1-.2-.1c-.3.1-.6.1-.7.4 0 .2.1.3.3.4.1 0 .1.1.2.1 0 .1 0 .1-.1.1-.2-.2-.5.1-.7-.2.1-.2.2-.5 0-.8 0 0 .1-.1 0-.1-.1-.2-.3 0-.5 0s-.4.1-.6.3c0 .1 0 .2.1.2s.1 0 .1.1v.1s0 .1.1.2c-.1 0-.2-.1-.3-.2 0-.1 0-.4-.2-.4h-.1s-.1.1-.1.3c0 .1.1.3.1.3s.5.4.6.6m-2.3-3.6h-.3l-.2-.3-.2.3h-.3l.1.2-.2.2.3.1v.3l.3-.2.3.2v-.3l.3-.1-.2-.2.1-.2zm-.9-.8v.2l.2-.1.2.1v-.2h.2l-.1-.1.1-.1h-.2l-.3-.3-.1.2h-.2l.1.1-.1.1.2.1zm3.3 7.3c0 .1.1.2.2.2s.2-.1.2-.2l-.2-.3s-.2.2-.2.3m2.6-4.2c0 .1.1.2.2.2s.2-.1.2-.2l-.2-.3-.2.3m-.5 2.7c0 .1.1.2.2.2s.2-.1.2-.2l-.2-.3-.2.3m-5.5 0c.2.6.9.3 1.4.4.3-.1.5-.3.6-.6 0-.3.1-.6-.1-.9-.2-.2-.3-.6-.3-1-.1-.5.5-.1.5-.4-.2-.2-.4-.5-.7-.3-.2.1-.2.3-.2.6.1.4.3.8.3 1.3-.1 0-.2-.1-.2-.2-.3-.4-1-.3-1.4-.7-.5 0 .3.5-.2.6 0 .1.1.2.1.3 0 0-.1 0-.2.1.1.3.3.5.4.8m1.7-5.3l-.1-.1-.1.1h-.1v.1l-.1.1h.1v.1l.1-.1.1.1v-.1h.1v-.2zm-3.4-4.2c.1 0 .2-.1.2-.2l-.2-.3-.2.3c0 .1.1.2.2.2m7.7 0c.1 0 .2-.1.2-.2l-.2-.3-.2.3c0 .1.1.2.2.2m-5.2 0c.1 0 .2-.1.2-.2l-.2-.3-.2.3c.1.1.1.2.2.2m2.6 0c.1 0 .2-.1.2-.2l-.2-.3-.1.3c0 .1 0 .2.1.2m4.9 9.2c.1 0 .2-.2.2-.4-.1-.2-.3-.2-.5-.1 0 .1-.1.2-.1.3 0 .1.2.3.4.2M7.2 17c-.1.1 0 .3.1.4.1 0 .2.1.3 0 0-.1.1-.2.1-.3-.1-.1-.3-.2-.5-.1M44 22.5c0 .1 0 .2.1.3.1.1.3.1.4.1.1-.1.3-.2.2-.3-.1-.1-.2-.2-.4-.2-.2-.1-.2 0-.3.1m1.3.2c.1 0 .3-.1.3-.3-.1-.1-.3-.3-.5-.2 0 .1-.1.2-.1.3 0 .1.1.3.3.2m2-.1c-.1-.2-.3-.2-.4-.2-.1.1-.3.2-.2.3.1.2.3.2.4.2.1-.1.2-.2.2-.3m-2.4 1c.2.7 1 1.1 1.6 1.4h.2c-.1-.2-.2-.5-.4-.7-.2-.3-.3-.3-.4-.5-.3-.2-.7-.6-1.2-.5 0 .1.1.2.2.3m-4.5-1.5c.2-.1.2-.2.2-.4-.1-.1-.2-.2-.3-.2-.2 0-.2.2-.3.4 0 .1.2.2.4.2m2.7.2c.1.1.2.1.3.1.1-.1.3-.2.3-.4-.1-.1-.2-.2-.3-.2-.2.1-.3.3-.3.5m-3.7 0v.3c.1 0 .3.2.4.1.1-.1.2-.1.1-.3-.1-.1-.2-.1-.3-.2 0 0-.1.1-.2.1M7.2 16.1c-.1.1-.3 0-.3.2-.1.1 0 .3.1.3.1.1.2.2.3.1.2-.1.2-.2.2-.4s-.1-.2-.3-.2m4.3 2.8c.2-.1.5-.2.6-.4 0-.1-.1-.1-.2-.1-.8-.2-1.5.2-1.9.8.5.1 1.1.1 1.5-.3m-1-.7c.1-.1.2-.2.2-.4-.1-.1-.2-.2-.3-.2-.1.1-.2.2-.2.3.1.2.2.4.3.3m28.4 3.2c-.1.2.1.3.2.4.2.1.3 0 .4-.2v-.2c-.2-.2-.5-.2-.6 0m8.5 2.2c.1-.1.3-.1.3-.3-.1-.1-.2-.3-.4-.2-.1.1-.3.2-.2.3 0 .2.1.2.3.2m.4.2c-.1.1 0 .2 0 .3.1.1.3.1.4.1.1-.1.2-.1.2-.2-.2-.2-.5-.4-.6-.2M9.1 17.6c.1-.1.2-.2.2-.4-.1-.2-.4-.3-.6-.1-.2.1 0 .3.1.4 0 .1.1.2.3.1m39.4 5.5c0-.1-.2-.3-.3-.3-.1 0-.2 0-.2.1-.1.1-.1.2-.1.3.1.1.2.2.3.2.1 0 .3-.1.3-.3m119.2 2.3H60.6v.5h107.2v-.5zM38.5 22.3c0 .2.1.3.2.3.2.1.3-.1.4-.1 0-.1.1-.2 0-.2-.2-.2-.5-.2-.6 0M7.1 13.4c.1 0 .3-.2.3-.3 0-.2-.2-.2-.3-.3-.1 0-.2 0-.3.1-.1.1 0 .3 0 .4.1 0 .2.2.3.1m-.9 7.5c-.4-.6-.5-1.2-1.2-1.7-.1 0-.2 0-.2.1 0 .8.4 1.5 1 1.8.2 0 .3.2.5.1.1-.3 0-.3-.1-.3m-.3-8.4c.1.1.2.3.4.2.1-.1.3-.2.2-.4-.1-.2-.3-.2-.4-.2-.1.1-.2.2-.2.4m1.3-.1c.1-.1.2-.2.2-.3-.1-.1-.2-.3-.4-.2-.1.1-.2.2-.2.4.1 0 .2.1.4.1m.2-.6c.1 0 .1.2.2.1-.1-.4-.1-.9 0-1.4-.1-.3-.3-.6-.6-.8h-.2c.2.7-.1 1.6.6 2.1m-1.1-.1c.1-.1.2-.2.2-.4-.1-.1-.2-.2-.3-.2-.1 0-.3 0-.3.2-.1.1 0 .3.1.4h.3M5 15.5c0 .1.1.2.1.2.2.1.4 0 .5-.2-.1-.2-.2-.3-.4-.3-.1 0-.2.2-.2.3m2-.2c-.3-.3-.6-.6-.9-.8-.4-.1-.7-.3-1-.2-.1.1-.3 0-.4.2.6.2 1 .7 1.6.9.2 0 .5.1.7-.1m.6-.7c.1 0 .1-.1.1-.2-.3-.3-.4-.5-.7-.8-.2-.3-.5-.4-.8-.6-.1 0-.3-.1-.4.1.4.6 1 1.5 1.8 1.5m.3-1.3c.1-.1.3-.2.2-.3-.1-.2-.2-.3-.4-.2-.1.1-.2.2-.2.4.1 0 .2.2.4.1m36.5 1c.2-.2.1-.7.2-1 0-.4-.2-.9-.3-1.2-.1-.1-.1-.3-.2-.2-.1.6-.4 1.3-.1 1.9.1.2.1.5.4.5m1.9.8c-.1 0-.2.1-.3.3 0 .2.2.3.4.3.1-.1.3-.2.2-.4 0-.1-.1-.2-.3-.2M26.6 3.6l-.1 1.6 1.2-1.1 1.2 1.1-.1-1.6 1.6-.3-1.3-.9.7-1.4-1.5.4-.6-1.4-.6 1.5-1.5-.5.8 1.4-1.3.9 1.5.3zm19.6 11.3c.2-.1.3-.2.3-.5-.1-.1-.1-.2-.2-.2s-.2 0-.2.1c-.2.1-.3.2-.2.4 0 0 .1.2.3.2m-36.7.4c.1.1.3.1.4-.1 0-.1 0-.3-.1-.4-.1-.1-.3 0-.5.1 0 .2.1.3.2.4M26 6.1h.5c.3 0 .7.6.2.6h-.5c-.2 0-.7-.6-.2-.6m2.1 0h.5c.3 0 .7.6.2.6h-.5c-.2 0-.7-.6-.2-.6m2.1 0h.2c.4 0 .3.6 0 .6s-.7-.6-.2-.6m-4.9.7h5.1c.2 0 .4-.2.4-.4s-.2-.4-.4-.4h-5.1c-.2 0-.4.2-.4.4-.1.2.1.4.4.4M10 16.1c.2.1.3-.1.4-.1.1-.1 0-.2-.1-.3-.1-.1-.2-.2-.3-.1-.1 0-.2.1-.3.2l.3.3m37-1.6c.2-.6.1-1.2-.1-1.7-.2-.1-.3-.3-.3-.5-.1-.1-.1-.2-.2-.1-.1.3-.2.6-.2 1 .1.5.5.9.7 1.4l.1-.1zm-36.3.7c.2-.1.3-.2.3-.4s-.2-.2-.3-.2c-.1.1-.3.2-.2.4 0 .2.1.2.2.2m0 .7c.1.1.2.3.4.2.1-.1.3-.2.3-.3-.1-.2-.3-.3-.5-.3-.1.1-.2.2-.2.4m-2.6-3.5c.1-.1.3-.2.2-.4-.1-.2-.3-.3-.5-.2 0 .1-.2.2-.1.3.2.2.3.3.4.3m-1.6 19c0-.3-.3-.4-.5-.2 0 .1-.1.2-.1.3.1.1.2.2.3.2.2 0 .3-.1.3-.3m-3-1.6c.1.1.3.3.5.2.2 0 .2-.3.1-.4-.1-.1-.3-.2-.4-.1-.1 0-.2.1-.2.3m1.4-.1c.2.1.5.4.6.2-.4-.5-.5-1.1-1.1-1.4-.1-.1-.3-.1-.4-.2-.1 0-.3-.2-.3 0 .6.4.6 1.1 1.2 1.4m-1.9.7c0 .2.1.3.3.3.2 0 .3-.1.3-.3 0-.2-.1-.3-.3-.3-.1 0-.3.1-.3.3m-.4-1.1c-.1.1 0 .3.1.4.1 0 .3 0 .4-.1.1-.1 0-.3 0-.4-.1-.2-.4-.1-.5.1m9 1.6c.1-.1.3-.1.2-.3-.1-.1-.2-.3-.4-.2-.1 0-.1.1-.2.2-.1.2.1.3.1.4.1 0 .3 0 .3-.1m-5.1 1.5c-.1.2-.4.3-.3.5.6-.1 1.1-.6 1.4-1.1.1-.2.3-.4.3-.6h-.1c-.5.3-1.1.7-1.3 1.2m5.1 1.6c0-.2-.2-.3-.3-.3-.1 0-.2.1-.3.2-.1.1 0 .2.1.3.1.1.2.1.3.1.1-.1.2-.2.2-.3M6.8 17.2c0-.1.2-.1.1-.2-.1-.2-.4-.4-.5-.1 0 .1-.1.3.1.3 0 0 .1.1.3 0m3.7 14.3c-.1-.1-.2-.3-.4-.2-.1.1-.2.2-.2.3.1.1.2.2.3.2.2 0 .4-.1.3-.3m.6.2c.1.1.2.2.3.2.2 0 .3-.1.3-.3 0-.2-.2-.3-.4-.3-.1.1-.2.2-.2.4m.7 3.6c.2-.1.2-.3.2-.5-.1-.2-.3-.2-.5-.2-.2.1-.2.3-.2.5.1.2.3.2.5.2m-9.1-5.1c-.1-.1-.2-.2-.4-.2-.1 0-.2.2-.2.4.1.2.2.2.4.2.1 0 .2-.2.2-.4m3.1-8.9c-.2.1-.1.2-.1.4.1.1.1.2.3.2.2 0 .2-.1.2-.3 0-.2-.2-.3-.4-.3M3.3 23c.8.2 1.6 0 2.2-.4l.1-.1-.1-.1c-.8-.1-1.7 0-2.3.5l.1.1zm1.8-1c.1 0 .2-.1.2-.1 0-.1.1-.1.1-.3 0-.1-.2-.3-.3-.2-.1.1-.2.2-.2.3 0 .2.1.3.2.3m-2-.3c.1 0 .2 0 .3-.1 0-.1.1-.2.1-.3-.1-.2-.2-.2-.3-.3-.2.1-.3.2-.3.3 0 .3.1.4.2.4m-.9 8v-.2c-.1-.1-.3-.2-.4-.1-.1.1-.2.2-.2.4.1.2.2.3.4.2 0-.1.1-.2.2-.3M4 21.8c.1.2.3.3.5.2.1-.1.2-.2.2-.4-.1-.1-.2-.3-.3-.3-.3.2-.4.4-.4.5m.5-.8c.1.1.1.2.2.2.2 0 .3 0 .4-.2v-.3c-.1-.1-.2-.1-.3-.1-.1.1-.3.2-.3.4M4 21c.2 0 .1-.2.2-.2 0-.2-.2-.2-.3-.3-.1 0-.3.2-.2.4 0 .1.2.2.3.1m1.7 3c.1-.3.3-.5.4-.7 0-.1.1-.2.1-.3h-.1c-.7.3-1.2.8-1.7 1.4l.1.1c.4-.1.9-.1 1.2-.5m46.5-2.6c.1 0 .2 0 .3-.1.1-.1.2-.2.1-.4-.1 0-.2-.2-.4-.1-.1.1-.3.2-.3.3l.3.3m-3.5-9.5c.3-.7.2-1.6-.2-2.1-.1-.1 0-.4-.3-.4-.3.7 0 1.5.3 2.2 0 0 0 .3.2.3m1.4.2c.2.1.3 0 .5-.2v-.3c-.1-.1-.2-.2-.4-.2-.1 0-.3.2-.3.3 0 .2.1.3.2.4m-1.5 4.4c0 .1.2.2.3.2.1-.1.3-.2.2-.4-.1-.1-.2-.2-.4-.1 0 .1-.1.2-.1.3m-1.2.5c.2.1.5.2.7.4.4.3 1 .3 1.4.1 0 0 .1-.1 0-.2-.5 0-.9-.5-1.4-.5-.3 0-.6 0-.7.2m2.3-5.9c.1-.1.3-.3.2-.5-.1-.2-.3-.2-.4-.2-.2.1-.3.3-.2.4 0 .2.2.3.4.3m-1.1 1.2c-.1.1-.2.2-.2.4.1.2.2.2.4.2.2-.1.2-.2.3-.4-.1-.1-.3-.3-.5-.2m-.5.1c.2 0 .2-.3.2-.5-.1-.1-.2-.2-.3-.2-.2.1-.3.2-.3.4.1.2.2.3.4.3m1 1.2c0-.2.4-.4.4-.7-.5.1-1 .4-1.4.9-.2.3-.5.6-.5 1 .2 0 .3-.1.4-.2.5-.2.9-.6 1.1-1m.1-1.4c.2.1.3-.1.4-.2 0-.1.1-.3 0-.3-.1-.1-.2-.1-.3-.1-.2 0-.3.2-.3.4.1.1.2.1.2.2m-1.1 3.7c.2.1.4-.1.6-.1.7-.4 1-1.1 1.1-1.9h-.1c-.7.6-1.2 1.2-1.6 2m-.7-.2c0-.1.1-.1.2-.1.1-.1 0-.2 0-.3-.1-.1-.2-.2-.3-.1-.1.1-.3.2-.3.4.1.1.2.2.4.1m2.5.9c-.1.1 0 .3.1.4.1.1.3.1.4.1.2-.1.2-.3.2-.4-.1-.1-.1-.1-.3-.2-.2-.1-.3 0-.4.1m2.4 8c.1-.1.3-.2.2-.4l-.2-.2c-.2-.1-.3 0-.4.1 0 .1-.1.2 0 .3.1.2.3.3.4.2m.1-1c.1-.1.1-.2 0-.3-.1-.1-.2-.2-.4-.1-.1 0-.2.1-.3.2 0 .1.1.2.1.3.2 0 .5.1.6-.1m-1.9-1.7c0-.3-.5-.5-.6-.2 0 .1-.1.2 0 .3.1.1.2.2.3.1.2 0 .3-.1.3-.2m.8 2.3c.1-.1.3-.2.2-.4-.1-.1-.2-.2-.4-.2s-.2.2-.4.3c-.3-.3-.7-.7-1.2-.7-.2.1.1.3.2.4.2.5.7.9 1.2 1.1.1 0 .2.1.2 0s-.1-.3-.2-.3c.1-.3.3-.2.4-.2m1-1.5c-.8-.1-1.5-.7-2.3-.2-.1.1-.4 0-.4.2.7.3 1.6.6 2.3.2.1-.1.4 0 .4-.2m-3.7-.9c0 .1.1.1.2.1 1-.3 1.5-1.2 2.1-1.9-.1-.1-.3 0-.5.1-1 .1-1.3 1.1-1.8 1.7m1.2-6.2c-.1 0-.2.1-.3.2 0 .1 0 .2.1.3.1.1.2.1.4.1.1 0 .2-.2.2-.3-.1-.1-.2-.2-.4-.3m1.1.7c.2 0 .3-.2.3-.3-.1-.2-.3-.3-.4-.2-.1 0-.2.2-.2.3.1.2.2.2.3.2m.3 5.5c-.1.2.1.3.2.4.2 0 .4-.1.4-.3-.1-.2-.2-.3-.4-.3l-.2.2m-.4-.8c0 .1.1.2.1.3.1.1.2.1.3.1.1-.1.3-.2.2-.4-.1-.1-.2-.1-.2-.2-.2 0-.3 0-.4.2M11.6 32.5c-.9.1-1.9.6-2.2 1.5.2.1.3-.1.4-.1.7-.2 1.2-.9 1.8-1.2v-.2zm-.1 3.6c.3.3.5 0 .8-.1.5-.3.6-.9.6-1.3-.3.5-1 .9-1.4 1.4m1.8-4.1c-.1-.1-.2-.2-.3-.1-.1.1-.3.1-.2.3.1.2.3.2.4.2.1 0 .1-.2.1-.4M44 30.8c-.1.2.1.3.2.4.1.1.3 0 .4-.1 0-.1.1-.2.1-.3-.1-.2-.5-.3-.7 0m-.8 4.5h-.1c-.1.7.4 1.2.9 1.6.1 0 .1-.1.1-.1 0-.7-.5-1.1-.9-1.5m8-4.1c0-.1.1-.1.2-.1.1-.1.3-.2.3-.4-.1-.1-.1-.2-.3-.2-.1 0-.2.1-.3.1-.3.2.2.4 0 .6-.3 0-.7-.1-.9.2.1.1.3.1.5.2.4.5 1.1.6 1.7.7v-.1c-.5-.4-.7-.8-1.2-1m-38.8 3.3c.1-.1.2-.2.2-.3-.1-.1-.2-.3-.4-.3-.1 0-.2.1-.2.1-.1.1 0 .2.1.3 0 .2.1.2.3.2m3.1-1.9l-.8-.2c-.5-.1-1 .2-1.5.3-.1 0-.1.1-.1.2.8.5 1.7.2 2.4-.3M42.2 34c.2-.1.5-.2.6-.4-.1-.1-.2-.1-.2 0-.6-.2-1.2 0-1.7.1-.1.1-.3 0-.3.2.5 0 1.1.3 1.6.1m.5 2.6c.1-.1.2-.2.2-.3-.1-.2-.2-.3-.4-.2-.1.1-.3.2-.3.3 0 .2.3.2.5.2m-1.8-1.7c-.1 0-.2.1-.2.2-.1.1 0 .3.1.3s.3.1.4 0c.1-.1.2-.2.1-.3-.1-.1-.3-.2-.4-.2m1.7 2c-.1.1-.2.1-.2.3.1.1.2.2.4.2.1-.1.2-.2.2-.3 0-.1-.2-.2-.4-.2m-2.2.9c0 .1-.1.2 0 .3.4-.5 1.1-.8 1.3-1.4-.1-.1.2-.3-.1-.4-.5.2-1.1.9-1.2 1.5m11.5-7.6c.1 0 .1-.1.1-.2-.1-.2-.3-.2-.5-.1-.1.1-.2.2-.1.4.2 0 .3 0 .5-.1m-37.3 5.5c-.2-.2-.4-.5-.6-.7h-.1c.2.6.1 1.3.5 1.8.2.2.3.5.6.5-.1-.4 0-1-.2-1.4-.1-.1-.2-.1-.2-.2m37.7-5.2c-.1 0-.1.1-.2.2 0 .2 0 .3.2.4.1 0 .3 0 .4-.1 0-.1.1-.1.1-.3-.1-.1-.3-.2-.5-.2m-3 1c-.1.1-.3.1-.3.2-.1.2.1.3.1.4.2 0 .4.1.5-.1.1-.1.1-.3 0-.4-.1-.1-.2-.2-.3-.1m1.8-1.6c.2-.2.1-.6.2-.8V29c-.5.2-.9.8-1.1 1.3-.1.2-.3.3-.2.5.5-.1.8-.5 1.1-.9m-1.6-.2c-.1 0-.3.2-.3.3.1.2.3.4.5.3.1-.1.2-.2.2-.3-.1-.2-.2-.3-.4-.3m-.7 1.2c.2-.1.3-.3.2-.4-.1-.2-.4-.3-.6 0-.1.1-.1.3 0 .4.2-.1.3 0 .4 0m.2 1.9c-.2-.5-.6-.9-1-1.3-.1-.1-.3-.2-.5-.1.2.5.5 1 .9 1.4.3.1.5.4.7.2.1 0 0-.1-.1-.2m0-4c-.7.3-1.2 1-1.5 1.6.1.1.2-.1.3-.1.7-.3 1-1 1.4-1.6 0 0-.1.1-.2.1m-3.3 5.6c0-.4-.2-.9-.4-1.2l-.5-.5c-.2-.1-.3-.4-.5-.2 0 .1 0 .1.1.2.3.8.5 1.5 1.2 2.1h.1c.1-.2 0-.3 0-.4m-.8-2.5h.2c.2-.1.3-.2.3-.4-.1-.2-.3-.2-.5-.2-.1 0-.2.2-.2.2-.1.2 0 .3.2.4m7.7-2.3c-.1.1-.3.2-.2.3.1.2.2.2.4.2.1 0 .2-.2.3-.3-.1-.1-.3-.2-.5-.2m-9 1.7c-.1.1-.2.3 0 .4.1.1.2.2.4.1.1-.1.3-.2.3-.4-.2-.2-.5-.3-.7-.1m-.2 2.9c-.1.1-.2.2-.1.3.1.1.1.2.2.2.1.1.3.1.4-.1.1-.1.1-.2.1-.3-.1-.2-.4-.3-.6-.1m1 0c-.2 0-.3.3-.2.5.1 0 .1.2.2.1.2.1.3-.1.4-.2v-.2c-.2-.1-.3-.3-.4-.2m-.5-.9c-.1.1-.2.1-.3.2 0 .1 0 .3.2.3.1.1.2.1.3 0 .1 0 .2-.2.1-.4 0-.1-.1-.1-.3-.1m-2.2 1.8c-.1.1-.2.1-.2.3.1.1.2.1.3.2.1-.1.2-.1.2-.3.1-.2-.1-.3-.3-.2M65 35l-1.1-2.6-1.1 2.6H65zm.2.4h-2.6l-.3.7c-.1.2-.2.4-.2.6 0 .2.1.4.3.5.1.1.3.1.7.1v.2h-2.5v-.2c.3 0 .5-.2.7-.3.2-.2.4-.6.6-1.1l2.7-6h.1l2.7 6.1c.3.6.5.9.6 1.1.1.1.3.2.5.2v.2h-3.6v-.2h.1c.3 0 .5 0 .6-.1.1-.1.1-.1.1-.3v-.2l-.2-.4-.3-.9zm8-3v4c0 .4 0 .6.1.7.1.1.2.2.4.2v.2h-2.1v-.7c-.2.3-.5.5-.7.6-.2.1-.5.2-.8.2-.3 0-.5-.1-.8-.3-.2-.2-.4-.4-.5-.6-.1-.2-.1-.7-.1-1.3v-2c0-.4 0-.6-.1-.7-.1-.1-.2-.2-.4-.2v-.2h2.1v3.5c0 .4 0 .6.1.7 0 .1.1.2.2.2.1.1.2.1.3.1.1 0 .3 0 .4-.1.1-.1.3-.3.5-.6v-2.8c0-.4 0-.6-.1-.7-.1-.1-.2-.2-.4-.2v-.2h1.9zm4.1-.2l.1 1.8h-.2c-.2-.5-.5-.9-.7-1.1-.2-.2-.5-.3-.7-.3-.2 0-.3 0-.4.2-.1.1-.2.2-.2.3 0 .1 0 .2.1.3.1.1.4.4 1 .8.5.4.9.7 1.1.9.2.3.3.5.3.9 0 .3-.1.6-.2.8-.1.3-.3.5-.6.6-.3.1-.5.2-.9.2-.2 0-.6-.1-1-.2-.1 0-.2-.1-.2-.1-.1 0-.2.1-.3.3h-.2l-.1-1.8h.2c.2.5.4.8.7 1.1.3.2.6.4.8.4.2 0 .3-.1.4-.2.1-.1.2-.2.2-.4s-.1-.3-.2-.5c-.1-.1-.4-.3-.7-.6-.6-.4-.9-.7-1.1-.9-.2-.3-.4-.6-.4-1s.1-.8.4-1.1c.3-.3.7-.5 1.2-.5.3 0 .5.1.8.2.1.1.2.1.2.1h.2l.2-.2h.2zm2.8-1.7v1.9h1.2v.5h-1.2v3.8c0 .1.1.2.1.2s.1.1.2.1c.2 0 .5-.2.7-.5l.2.1c-.3.7-.8 1.1-1.4 1.1-.3 0-.6-.1-.8-.3-.2-.2-.4-.4-.4-.6 0-.1-.1-.5-.1-1V33h-.7v-.2c.5-.3.9-.7 1.2-1l.9-1.2h.1zm3.8 1.9v1.2c.3-.5.6-.9.9-1.1.3-.2.5-.3.7-.3.2 0 .4.1.5.2.1.1.2.3.2.5s-.1.4-.2.6c-.1.1-.3.2-.4.2-.2 0-.4-.1-.5-.2-.1-.1-.2-.2-.3-.2h-.1c-.1 0-.2 0-.3.1-.2.1-.3.3-.3.5-.1.4-.2.7-.2 1.2V37c0 .1.1.2.2.2s.2.1.4.1v.2h-2.8v-.2c.2 0 .4-.1.5-.2.1-.1.1-.4.1-.8v-3.4c0-.1-.1-.2-.2-.2s-.2-.1-.4-.1v-.2h2.2zm5.2 3.9v-1.7c-.4.3-.8.5-1 .8-.1.2-.2.4-.2.6 0 .2.1.3.2.4.1.1.2.1.4.1.1.2.3 0 .6-.2m0 .4c-.6.6-1.2.8-1.7.8-.3 0-.5-.1-.7-.3-.2-.2-.3-.4-.3-.7 0-.4.2-.7.5-1.1.3-.3 1.1-.7 2.2-1.3v-.5c0-.4 0-.6-.1-.7 0-.1-.1-.2-.2-.3-.1-.1-.2-.1-.4-.1s-.4.1-.6.2c-.1.1-.1.1-.1.2s.1.2.2.3c.1.2.2.3.2.5s-.1.3-.2.5c-.1.1-.3.2-.5.2s-.4-.1-.6-.2c-.2-.1-.2-.3-.2-.5 0-.3.1-.5.3-.8.2-.2.5-.4.9-.6.4-.1.8-.2 1.2-.2.5 0 .9.1 1.2.3.3.2.5.4.6.7.1.2.1.5.1 1.1v2.4c0 .1 0 .1.1.1h.1c.1 0 .2-.1.3-.2l.2.1c-.2.3-.4.5-.6.6-.2.1-.4.2-.7.2-.3 0-.5-.1-.7-.2-.4 0-.5-.2-.5-.5"/><path d="M93.6 30v6.4c0 .4 0 .6.1.7.1.1.2.2.5.2v.2h-2.8v-.2c.2 0 .4-.1.5-.2.1-.1.1-.3.1-.7v-5.3c0-.4 0-.6-.1-.7-.1-.1-.2-.2-.5-.2V30h2.2zm2.4-.1c.2 0 .4.1.6.3.2.2.2.4.2.6 0 .2-.1.4-.3.6-.2.2-.4.2-.6.2-.2 0-.4-.1-.6-.2-.2-.2-.2-.4-.2-.6 0-.2.1-.4.2-.6.2-.3.4-.3.7-.3m.7 2.5v4.1c0 .4 0 .6.1.7.1.1.2.2.5.2v.2h-2.8v-.2c.2 0 .4-.1.5-.2.1-.1.1-.3.1-.7v-3c0-.4 0-.6-.1-.7-.1-.1-.2-.2-.5-.2v-.2h2.2zm3.7 3.9v-1.7c-.4.3-.8.5-1 .8-.1.2-.2.4-.2.6 0 .2.1.3.2.4.1.1.2.1.4.1.1.2.3 0 .6-.2m0 .4c-.6.6-1.2.8-1.7.8-.3 0-.5-.1-.7-.3-.2-.2-.3-.4-.3-.7 0-.4.2-.7.5-1.1.3-.3 1.1-.7 2.2-1.3v-.5c0-.4 0-.6-.1-.7 0-.1-.1-.2-.2-.3-.1-.1-.2-.1-.4-.1s-.4.1-.6.2c-.1.1-.1.2-.1.3 0 .1.1.2.2.3.1.2.2.3.2.5s-.1.3-.2.5c-.1.1-.3.2-.5.2s-.4-.1-.6-.2c-.2-.1-.2-.3-.2-.5 0-.3.1-.5.3-.8.2-.2.5-.4.9-.6.4-.1.8-.2 1.2-.2.5 0 .9.1 1.2.3.3.2.5.4.6.7.1.2.1.5.1 1.1v2.4c0 .1 0 .1.1.1h.1c.1 0 .2-.1.3-.2l.2.1c-.2.3-.4.5-.6.6-.2.1-.4.2-.7.2-.3 0-.5-.1-.7-.2-.4-.1-.5-.3-.5-.6"/><path d="M105 32.4v.6c.3-.3.5-.5.8-.6.2-.1.5-.2.8-.2.3 0 .6.1.8.3.2.2.4.4.4.7.1.2.1.6.1 1.2v2c0 .4 0 .6.1.7.1.1.2.2.4.2v.2h-2.6v-.2c.2 0 .3-.1.4-.2.1-.1.1-.3.1-.7v-3.1c0-.1-.1-.2-.2-.3-.1-.1-.2-.1-.3-.1-.3 0-.6.2-.9.7v2.8c0 .4 0 .6.1.7.1.1.2.2.4.2v.2h-2.6v-.2c.2 0 .4-.1.5-.2.1-.1.1-.3.1-.7v-2.9c0-.4 0-.6-.1-.7-.1-.1-.2-.2-.4-.2v-.2h2.1zm9.1-2v3.3h.3c.5 0 .9 0 1.1-.1.3-.1.5-.3.6-.5.1-.2.2-.6.2-1 0-.6-.1-1-.4-1.3-.3-.3-.7-.4-1.3-.4h-.5zm0 3.7v2.1c0 .4 0 .7.1.8 0 .1.1.2.3.3.1.1.4.1.7.1v.2h-3.8v-.2c.3 0 .6 0 .7-.1.1-.1.2-.1.3-.3 0-.1.1-.4.1-.8v-4.8c0-.4 0-.7-.1-.8 0-.1-.1-.2-.3-.3-.1-.1-.4-.1-.7-.1V30h3.5c.9 0 1.6.1 2 .2.4.1.8.4 1 .7.3.3.4.7.4 1.2 0 .6-.2 1-.6 1.4-.3.2-.6.4-1.1.5l1.8 2.5c.2.3.4.5.5.6.1.1.3.2.5.2v.2H117l-2.4-3.4h-.5zm8.2.3c0-.6 0-1-.1-1.2-.1-.2-.2-.4-.3-.5-.1-.1-.2-.1-.3-.1-.2 0-.3.1-.5.3-.2.3-.3.8-.3 1.3v.2h1.5zm1.3.3h-2.8c0 .7.2 1.2.5 1.6.3.3.6.5.9.5.2 0 .4-.1.6-.2.2-.1.4-.3.6-.7l.2.1c-.3.6-.6 1-.9 1.2-.3.2-.7.4-1.2.4-.8 0-1.3-.3-1.7-.9-.3-.5-.5-1.1-.5-1.8 0-.9.2-1.5.7-2.1.5-.5 1-.8 1.6-.8.5 0 1 .2 1.4.6.4.7.6 1.3.6 2.1m2.4-2.3v.6c.3-.3.5-.5.8-.6.2-.1.5-.2.8-.2.3 0 .6.1.8.3.2.2.4.4.4.7.1.2.1.6.1 1.2v2c0 .4 0 .6.1.7.1.1.2.2.4.2v.2h-2.6v-.2c.2 0 .3-.1.4-.2.1-.1.1-.3.1-.7v-3.1c0-.1-.1-.2-.2-.3-.1-.1-.2-.1-.3-.1-.3 0-.6.2-.9.7v2.8c0 .4 0 .6.1.7.1.1.2.2.4.2v.2h-2.6v-.2c.2 0 .4-.1.5-.2.1-.1.1-.3.1-.7v-2.9c0-.4 0-.6-.1-.7-.1-.1-.2-.2-.4-.2v-.2h2.1zm6.9 2c0-.6 0-1-.1-1.2-.1-.2-.2-.4-.3-.5-.1-.1-.2-.1-.3-.1-.2 0-.3.1-.5.3-.2.3-.3.8-.3 1.3v.2h1.5zm1.3.3h-2.8c0 .7.2 1.2.5 1.6.3.3.6.5.9.5.2 0 .4-.1.6-.2.2-.1.4-.3.6-.7l.2.1c-.3.6-.6 1-.9 1.2-.3.2-.7.4-1.2.4-.8 0-1.3-.3-1.7-.9-.3-.5-.5-1.1-.5-1.8 0-.9.2-1.5.7-2.1.5-.5 1-.8 1.6-.8.5 0 1 .2 1.4.6.4.7.6 1.3.6 2.1m5.4 3l-1.4-3.8-1.4 3.8h-.3l-1.4-3.7c-.2-.6-.4-.9-.5-1.1-.1-.1-.2-.2-.4-.3v-.2h2.6v.2c-.2 0-.3 0-.4.1-.1.1-.1.1-.1.2s.1.2.2.6l.8 2 .7-2-.1-.1c-.1-.3-.2-.5-.3-.5-.1-.1-.2-.1-.4-.2v-.2h2.6v.2c-.2 0-.3 0-.4.1-.1 0-.1.1-.1.2s.1.3.2.5l.7 2 .7-1.9c.1-.3.1-.4.1-.5 0-.1 0-.2-.1-.3-.1-.1-.2-.1-.4-.1v-.2h1.5v.2c-.2 0-.3.1-.4.2-.1.1-.2.4-.4.8l-1.4 4.1h-.2zm5.6-1.4v-1.7c-.4.3-.8.5-1 .8-.1.2-.2.4-.2.6 0 .2.1.3.2.4.1.1.2.1.4.1.1.2.3 0 .6-.2m0 .4c-.6.6-1.2.8-1.7.8-.3 0-.5-.1-.7-.3-.2-.2-.3-.4-.3-.7 0-.4.2-.7.5-1.1.3-.3 1.1-.7 2.2-1.3v-.5c0-.4 0-.6-.1-.7 0-.1-.1-.2-.2-.3-.1-.1-.3-.1-.4-.1-.2 0-.4.1-.6.2-.1.1-.1.1-.1.2s.1.2.2.3c.1.2.2.3.2.5s-.1.3-.2.5c-.1.1-.3.2-.5.2s-.4-.1-.6-.2c-.2-.1-.2-.3-.2-.5 0-.3.1-.5.3-.8.2-.2.5-.4.9-.6.4-.1.8-.2 1.2-.2.5 0 .9.1 1.2.3.3.2.5.4.6.7.1.2.1.5.1 1.1v2.4c0 .1 0 .1.1.1h.1c.1 0 .2-.1.3-.2l.2.1c-.2.3-.4.5-.6.6-.2.1-.4.2-.7.2-.3 0-.5-.1-.7-.2-.4 0-.5-.2-.5-.5m4.4-3.3v3.2c0 .2.1.4.3.5.1.1.3.2.5.2s.3-.1.5-.2c.1-.1.2-.3.3-.6.1-.3.1-.9.1-1.7 0-.8-.1-1.3-.3-1.6-.1-.2-.3-.3-.6-.3-.2-.1-.5.1-.8.5m0-3.4v2.8c.4-.4.9-.7 1.4-.7.4 0 .7.1 1 .3.3.2.6.5.7.9.2.4.3.8.3 1.3 0 .6-.1 1.1-.3 1.5-.2.5-.5.8-.9 1-.4.2-.8.4-1.3.4-.3 0-.5 0-.7-.1-.2-.1-.4-.2-.6-.4l-.9.6h-.2v-7.1c0-.1-.1-.2-.2-.2s-.2-.1-.4-.1V30h2.1zm6 0v6.4c0 .4 0 .6.1.7.1.1.2.2.5.2v.2h-2.8v-.2c.2 0 .4-.1.5-.2.1-.1.1-.3.1-.7v-5.3c0-.4 0-.6-.1-.7-.1-.1-.2-.2-.5-.2V30h2.2zm3.8 4.4c0-.6 0-1-.1-1.2-.1-.2-.2-.4-.3-.5-.1-.1-.2-.1-.3-.1-.2 0-.3.1-.5.3-.2.3-.3.8-.3 1.3v.2h1.5zm1.3.3h-2.8c0 .7.2 1.2.5 1.6.3.3.6.5.9.5.2 0 .4-.1.6-.2.2-.1.4-.3.6-.7l.2.1c-.3.6-.6 1-.9 1.2-.3.2-.7.4-1.2.4-.8 0-1.3-.3-1.7-.9-.3-.5-.5-1.1-.5-1.8 0-.9.2-1.5.7-2.1.5-.5 1-.8 1.6-.8.5 0 1 .2 1.4.6.4.7.6 1.3.6 2.1m-97.1 7.5v3h.1c.5 0 .8-.1 1-.4.2-.3.3-.7.4-1.3h.2v3.9h-.2c0-.4-.1-.8-.3-1-.1-.3-.3-.5-.5-.5-.2-.1-.5-.1-.8-.1v2.1c0 .4 0 .7.1.8 0 .1.1.2.2.2.1.1.2.1.5.1h.4c.7 0 1.3-.2 1.7-.5.4-.3.7-.8.9-1.5h.2l-.3 2.4h-6.5V49h.3c.2 0 .4 0 .5-.1.1-.1.2-.1.2-.3 0-.1.1-.3.1-.7v-5.5c0-.1-.1-.2-.2-.3-.2-.1-.3-.1-.6-.1h-.2v-.2H67V44h-.2c-.1-.5-.3-.9-.4-1.2-.2-.2-.5-.4-.8-.5-.2-.1-.6-.1-1.2-.1h-.8zm6.6 1.9v.7c.3-.3.5-.5.8-.6.2-.1.5-.2.8-.2.3 0 .6.1.8.3.2.2.4.4.4.7.1.2.1.6.1 1.2v2c0 .4 0 .6.1.7.1.1.2.2.4.2v.2H71V49c.2 0 .3-.1.4-.2.1-.1.1-.3.1-.7V45c0-.1-.1-.2-.2-.3-.1-.1-.2-.1-.3-.1-.3 0-.6.2-.9.7v2.8c0 .4 0 .6.1.7.1.1.2.2.4.2v.2H68V49c.2 0 .4-.1.5-.2.1-.1.1-.3.1-.7v-2.9c0-.4 0-.6-.1-.7-.1-.1-.2-.2-.4-.2v-.2h2.1zm6.8 2c0-.6 0-1-.1-1.2-.1-.2-.2-.4-.3-.5-.1-.1-.2-.1-.3-.1-.2 0-.3.1-.5.3-.2.3-.3.8-.3 1.3v.2H77zm1.4.4h-2.8c0 .7.2 1.2.5 1.6.3.3.6.5.9.5.2 0 .4-.1.6-.2.2-.1.4-.3.6-.7l.2.1c-.3.6-.6 1-.9 1.2-.3.2-.7.4-1.2.4-.8 0-1.3-.3-1.7-.9-.3-.5-.5-1.1-.5-1.8 0-.9.2-1.5.7-2.1.5-.5 1-.8 1.6-.8.5 0 1 .2 1.4.6.4.6.6 1.2.6 2.1m2.4-2.4v1.2c.3-.5.6-.9.9-1.1.3-.2.5-.3.7-.3.2 0 .4.1.5.2.1.1.2.3.2.5s-.1.4-.2.6c-.1.1-.3.2-.4.2-.2 0-.4-.1-.5-.2-.1-.1-.2-.2-.3-.2h-.1c-.1 0-.2 0-.3.1-.2.1-.3.3-.3.5-.1.4-.2.7-.2 1.2v1.9c0 .1.1.2.2.2s.2.1.4.1v.2h-2.8V49c.2 0 .4-.1.5-.2.1-.1.1-.4.1-.8v-3.4c0-.1-.1-.2-.2-.2s-.2-.1-.4-.1v-.2h2.2zm4.9.2c-.2 0-.4.1-.5.3-.2.2-.2.7-.2 1.3 0 .5.1.9.2 1.1.1.2.3.3.5.3s.4-.1.6-.3c.1-.2.2-.6.2-1.2 0-.7-.1-1.1-.2-1.3-.2-.1-.4-.2-.6-.2m-.3 5.7c-.4 0-.6 0-.7.1-.2.1-.3.3-.3.5s.1.4.3.5c.2.2.6.2 1.2.2.5 0 .9-.1 1.2-.2.3-.1.4-.3.4-.6 0-.1 0-.2-.1-.2-.1-.1-.2-.2-.4-.2-.2-.1-.7-.1-1.6-.1m1.3-5.8h1.7v.6h-1c.2.2.3.3.4.5.1.2.1.4.1.6 0 .4-.1.7-.3 1-.2.3-.5.5-.8.6-.4.2-.7.2-.9.2h-.7c-.2 0-.3.1-.4.2-.1.1-.2.2-.2.4 0 .1.1.2.2.3.1.1.3.1.5.1h1c.8 0 1.3.1 1.6.3.4.2.6.6.6 1.1 0 .3-.1.6-.3.9-.2.3-.4.4-.8.6-.5.2-1 .3-1.6.3-.5 0-.9 0-1.3-.1s-.7-.2-.8-.4c-.2-.2-.2-.3-.2-.5s.1-.3.2-.5c.1-.1.4-.2.7-.3-.5-.2-.7-.6-.7-1 0-.3.1-.5.3-.7.2-.2.5-.4.9-.6-.5-.2-.8-.4-1.1-.7-.2-.3-.3-.6-.3-1 0-.5.2-.9.6-1.3.4-.4.9-.6 1.6-.6.3-.3.6-.2 1 0"/><path d="M91 49.5l-1.7-3.8c-.2-.6-.4-.9-.6-1.1-.1-.1-.3-.2-.4-.3v-.2H91v.2c-.2 0-.3 0-.4.1-.1.1-.1.1-.1.2s.1.4.3.8l.9 2 .6-1.6c.2-.6.3-.9.3-1.2 0-.1 0-.2-.1-.3-.1-.1-.2-.1-.5-.1V44h1.7v.2c-.2 0-.3.1-.4.2-.1.1-.3.5-.5 1.1l-1.5 3.8c-.4 1-.6 1.5-.8 1.8-.3.3-.6.5-1 .5-.3 0-.6-.1-.7-.3-.2-.2-.3-.4-.3-.6 0-.2.1-.4.2-.5.1-.1.3-.2.5-.2s.3.1.4.2c.1.1.2.3.2.5v.3l.1.1c.1 0 .2-.1.3-.2.1-.2.3-.5.5-1.1l.3-.3zm9-2.8l-1.1-2.6-1.1 2.6h2.2zm.2.4h-2.6l-.3.7c-.1.2-.2.4-.2.6 0 .2.1.4.3.5 0 .1.2.1.6.1v.2h-2.5V49c.3 0 .5-.2.7-.3.2-.2.4-.6.6-1.1l2.7-6h.1l2.7 6.1c.3.6.5.9.6 1.1.1.1.3.2.5.2v.2h-3.6V49h.1c.3 0 .5 0 .6-.1.1-.1.1-.1.1-.3v-.2l-.2-.4-.2-.9zm5.8-2.8c-.2 0-.4.1-.5.3-.1.2-.2.7-.2 1.3 0 .5.1.9.2 1.1.1.2.3.3.5.3s.4-.1.6-.3c.1-.2.2-.6.2-1.2 0-.7-.1-1.1-.2-1.3-.2-.1-.4-.2-.6-.2m-.3 5.7c-.4 0-.6 0-.7.1-.2.1-.3.3-.3.5s.1.4.3.5c.2.2.6.2 1.2.2.5 0 .9-.1 1.2-.2.3-.1.4-.3.4-.6 0-.1 0-.2-.1-.2-.1-.1-.2-.2-.4-.2-.2-.1-.8-.1-1.6-.1m1.2-5.8h1.7v.6h-1c.2.2.3.3.4.5.1.2.1.4.1.6 0 .4-.1.7-.3 1-.2.3-.5.5-.8.6-.4.2-.7.2-.9.2h-.7c-.2 0-.3.1-.4.2-.1.1-.2.2-.2.4 0 .1.1.2.2.3.1.1.3.1.5.1h1c.8 0 1.3.1 1.6.3.4.2.6.6.6 1.1 0 .3-.1.6-.3.9-.2.3-.4.4-.8.6-.5.2-1 .3-1.6.3-.5 0-.9 0-1.3-.1s-.7-.2-.8-.4c-.2-.2-.2-.3-.2-.5s.1-.3.2-.5c.1-.1.4-.2.7-.3-.5-.2-.7-.6-.7-1 0-.3.1-.5.3-.7.2-.2.5-.4.9-.6-.5-.2-.8-.4-1.1-.7-.2-.3-.3-.6-.3-1 0-.5.2-.9.6-1.3.4-.4.9-.6 1.6-.6.3-.3.7-.2 1 0m5.1 1.9c0-.6 0-1-.1-1.2-.1-.2-.2-.4-.3-.5-.1-.1-.2-.1-.3-.1-.2 0-.3.1-.5.3-.2.3-.3.8-.3 1.3v.2h1.5zm1.3.4h-2.8c0 .7.2 1.2.5 1.6.3.3.6.5.9.5.2 0 .4-.1.6-.2.2-.1.4-.3.6-.7l.2.1c-.3.6-.6 1-.9 1.2-.3.2-.7.4-1.2.4-.8 0-1.3-.3-1.7-.9-.3-.5-.5-1.1-.5-1.8 0-.9.2-1.5.7-2.1.5-.5 1-.8 1.6-.8.5 0 1 .2 1.4.6.4.6.6 1.2.6 2.1m2.4-2.4v.7c.3-.3.5-.5.8-.6.2-.1.5-.2.8-.2.3 0 .6.1.8.3.2.2.4.4.4.7.1.2.1.6.1 1.2v2c0 .4 0 .6.1.7.1.1.2.2.4.2v.2h-2.6V49c.2 0 .3-.1.4-.2.1-.1.1-.3.1-.7V45c0-.1-.1-.2-.2-.3-.1-.1-.2-.1-.3-.1-.3 0-.6.2-.9.7v2.8c0 .4 0 .6.1.7.1.1.2.2.4.2v.2h-2.6V49c.2 0 .4-.1.5-.2.1-.1.1-.3.1-.7v-2.9c0-.4 0-.6-.1-.7-.1-.1-.2-.2-.4-.2v-.2h2.1zm8.1 3.8l.2.1c-.2.5-.5.8-.9 1-.4.2-.7.3-1.2.3-.7 0-1.2-.3-1.6-.8-.4-.5-.6-1.1-.6-1.9 0-.7.2-1.3.6-1.9.5-.6 1.1-1 1.9-1 .5 0 1 .1 1.3.4.3.3.5.6.5.9 0 .2-.1.4-.2.5-.1.1-.3.2-.5.2s-.4-.1-.5-.2c-.1-.1-.2-.4-.3-.8 0-.2-.1-.4-.2-.5-.1-.1-.2-.1-.3-.1-.2 0-.3.1-.5.3-.2.3-.3.7-.3 1.3 0 .5.1.9.2 1.4.2.4.4.8.6 1 .2.2.4.2.7.2.2 0 .4 0 .5-.1.1.1.3 0 .6-.3"/><path d="M126.6 49.5l-1.7-3.8c-.2-.6-.4-.9-.6-1.1-.1-.1-.3-.2-.4-.3v-.2h2.7v.2c-.2 0-.3 0-.4.1-.1.1-.1.1-.1.2s.1.4.3.8l.9 2 .6-1.6c.2-.6.3-.9.3-1.2 0-.1 0-.2-.1-.3-.1-.1-.2-.1-.5-.1V44h1.7v.2c-.2 0-.3.1-.4.2-.1.1-.3.5-.5 1.1l-1.5 3.8c-.4 1-.6 1.5-.8 1.8-.3.3-.6.5-1 .5-.3 0-.6-.1-.7-.3-.2-.2-.3-.4-.3-.6 0-.2.1-.4.2-.5.1-.1.3-.2.5-.2s.3.1.4.2c.1.1.2.3.2.5v.3l.1.1c.1 0 .2-.1.3-.2.1-.2.3-.5.5-1.1l.3-.3zM65 17.7l-1.1-2.6-1.1 2.6H65zm.2.4h-2.6l-.3.7c-.1.2-.2.4-.2.6 0 .2.1.4.3.5.1.1.3.1.7.1v.2h-2.5V20c.3 0 .5-.2.7-.3.2-.2.4-.6.6-1.1l2.7-6h.1l2.7 6.1c.3.6.5.9.6 1.1.1.1.3.2.5.2v.2h-3.6V20h.1c.3 0 .5 0 .6-.1.1-.1.1-.1.1-.3v-.2l-.2-.4-.3-.9zm8-3v4c0 .4 0 .6.1.7.1.1.2.2.4.2v.2h-2.1v-.7c-.2.3-.5.5-.7.6-.2.1-.5.2-.8.2-.3 0-.5-.1-.8-.3-.2-.2-.4-.4-.5-.6-.1-.2-.1-.7-.1-1.3v-2c0-.4 0-.6-.1-.7-.1-.1-.2-.2-.4-.2V15h2.1v3.5c0 .4 0 .6.1.7 0 .1.1.2.2.2.1.1.2.1.3.1.1 0 .3 0 .4-.1.1-.1.3-.3.5-.6V16c0-.4 0-.6-.1-.7-.1-.1-.2-.2-.4-.2v-.2h1.9zm4.1-.2l.1 1.8h-.2c-.2-.5-.5-.9-.7-1.1-.2-.2-.5-.3-.7-.3-.2 0-.3.1-.4.2-.1.1-.2.2-.2.3 0 .1 0 .2.1.3.1.1.4.4 1 .8.5.4.9.7 1.1.9.2.3.3.5.3.9 0 .3-.1.6-.2.8-.1.3-.3.5-.6.6-.3.1-.5.2-.9.2-.2 0-.6-.1-1-.2-.1 0-.2-.1-.2-.1-.1 0-.2.1-.3.3h-.2l-.1-1.9h.2c.2.5.4.8.7 1.1.3.2.6.4.8.4.2 0 .3-.1.4-.2.1-.1.2-.2.2-.4s-.1-.3-.2-.5c-.1-.1-.4-.3-.7-.6-.6-.4-.9-.7-1.1-.9-.2-.3-.4-.6-.4-1s.1-.8.4-1.1c.3-.3.7-.5 1.2-.5.3 0 .5.1.8.2.1.1.2.1.2.1h.2l.2-.2h.2zm2.8-1.7v1.9h1.2v.5h-1.2v3.8c0 .1.1.2.1.2s.1.1.2.1c.2 0 .5-.2.7-.5l.2.1c-.3.7-.8 1.1-1.4 1.1-.3 0-.6-.1-.8-.3-.2-.2-.4-.4-.4-.6 0-.1-.1-.5-.1-1v-2.8h-.7v-.2c.5-.3.9-.7 1.2-1l.9-1.2h.1zm3.8 1.9v1.2c.3-.5.6-.9.9-1.1.3-.2.5-.3.7-.3.2 0 .4.1.5.2.1.1.2.3.2.5s-.1.4-.2.6c-.1.1-.3.2-.4.2-.2 0-.4-.1-.5-.2-.1-.1-.2-.2-.3-.2h-.1c-.1 0-.2 0-.3.1-.2.1-.3.3-.3.5-.1.4-.2.7-.2 1.2v1.9c0 .1.1.2.2.2s.2.1.4.1v.2h-2.8V20c.2 0 .4-.1.5-.2.1-.1.1-.4.1-.8v-3.4c0-.1-.1-.2-.2-.2s-.2-.1-.4-.1v-.2h2.2zm5.2 3.9v-1.7c-.4.3-.8.5-1 .8-.1.2-.2.4-.2.6 0 .2.1.3.2.4.1.1.2.1.4.1.1.2.3.1.6-.2m0 .5c-.6.6-1.2.8-1.7.8-.3 0-.5-.1-.7-.3-.2-.2-.3-.4-.3-.7 0-.4.2-.7.5-1.1.3-.3 1.1-.7 2.2-1.3v-.5c0-.4 0-.6-.1-.7 0-.1-.1-.2-.2-.3-.1-.1-.2-.1-.4-.1s-.4.1-.6.2c-.1.1-.1.1-.1.2s.1.2.2.3c.1.2.2.3.2.5s-.1.3-.2.5c-.1.1-.3.2-.5.2s-.4-.1-.6-.2c-.2-.1-.2-.3-.2-.5 0-.3.1-.5.3-.8.2-.2.5-.4.9-.6.4-.1.8-.2 1.2-.2.5 0 .9.1 1.2.3.3.2.5.4.6.7.1.2.1.5.1 1.1v2.4c0 .1 0 .1.1.1h.1c.1 0 .2-.1.3-.2l.2.1c-.2.3-.4.5-.6.6-.2.1-.4.2-.7.2-.3 0-.5-.1-.7-.2-.4-.1-.5-.3-.5-.5"/><path d="M93.6 12.7v6.4c0 .4 0 .6.1.7.1.1.2.2.5.2v.2h-2.8V20c.2 0 .4-.1.5-.2.1-.1.1-.3.1-.7v-5.3c0-.4 0-.6-.1-.7-.1-.1-.2-.2-.5-.2v-.2h2.2zm2.4-.1c.2 0 .4.1.6.3.2.2.2.4.2.6 0 .2-.1.4-.3.6-.2.2-.4.2-.6.2-.2 0-.4-.1-.6-.2-.2-.2-.2-.4-.2-.6 0-.2.1-.4.2-.6.2-.2.4-.3.7-.3m.7 2.5v4.1c0 .4 0 .6.1.7.1.1.2.2.5.2v.2h-2.8V20c.2 0 .4-.1.5-.2.1-.1.1-.3.1-.7v-3c0-.4 0-.6-.1-.7-.1-.1-.2-.2-.5-.2V15h2.2zm3.7 3.9v-1.7c-.4.3-.8.5-1 .8-.1.2-.2.4-.2.6 0 .2.1.3.2.4.1.1.2.1.4.1.1.2.3.1.6-.2m0 .5c-.6.6-1.2.8-1.7.8-.3 0-.5-.1-.7-.3-.2-.2-.3-.4-.3-.7 0-.4.2-.7.5-1.1.3-.3 1.1-.7 2.2-1.3v-.5c0-.4 0-.6-.1-.7 0-.1-.1-.2-.2-.3-.1-.1-.2-.1-.4-.1s-.4.1-.6.2c-.1.1-.1.1-.1.2s.1.2.2.3c.1.2.2.3.2.5s-.1.3-.2.5c-.1.1-.3.2-.5.2s-.4-.1-.6-.2c-.2-.1-.2-.3-.2-.5 0-.3.1-.5.3-.8.2-.2.5-.4.9-.6.4-.1.8-.2 1.2-.2.5 0 .9.1 1.2.3.3.2.5.4.6.7.1.2.1.5.1 1.1v2.4c0 .1 0 .1.1.1h.1c.1 0 .2-.1.3-.2l.2.1c-.2.3-.4.5-.6.6-.2.1-.4.2-.7.2-.3 0-.5-.1-.7-.2-.4-.1-.5-.3-.5-.5"/><path d="M105 15.1v.7c.3-.3.5-.5.8-.6.2-.1.5-.2.8-.2.3 0 .6.1.8.3.2.2.4.4.4.7.1.2.1.6.1 1.2v2c0 .4 0 .6.1.7.1.1.2.2.4.2v.2h-2.6V20c.2 0 .3-.1.4-.2.1-.1.1-.3.1-.7V16c0-.1-.1-.2-.2-.3-.1-.1-.2-.1-.3-.1-.3 0-.6.2-.9.7v2.8c0 .4 0 .6.1.7.1.1.2.2.4.2v.2h-2.6V20c.2 0 .4-.1.5-.2.1-.1.1-.3.1-.7v-2.9c0-.4 0-.6-.1-.7-.1-.1-.2-.2-.4-.2v-.2h2.1zm13.7-2.5v2.6h-.2c-.2-.7-.6-1.3-1.1-1.6-.5-.4-1-.6-1.6-.6-.6 0-1 .2-1.4.5-.4.3-.6.8-.8 1.3-.2.6-.2 1.1-.2 1.7 0 .7.1 1.3.3 1.9.2.5.4.9.8 1.2.4.3.8.4 1.3.4.2 0 .4 0 .6-.1.2 0 .4-.1.6-.2v-1.6c0-.3 0-.5-.1-.6 0-.1-.1-.2-.3-.2-.1-.1-.3-.1-.5-.1h-.2V17h3.6v.2c-.3 0-.5.1-.6.1-.1.1-.2.2-.2.3v2.1c-.5.2-1 .4-1.5.5-.5.1-1.1.2-1.6.2-.7 0-1.3-.1-1.8-.3-.5-.2-.9-.4-1.2-.8-.4-.3-.6-.7-.8-1.1-.3-.5-.4-1.1-.4-1.7 0-1.1.4-2.1 1.2-2.8.8-.8 1.8-1.2 3-1.2.4 0 .7 0 1 .1.2 0 .4.1.8.3.4.1.6.2.6.2.1 0 .2 0 .3-.1.1-.1.2-.2.2-.4h.2zm3.5 2.7c-.2 0-.3.1-.5.2-.1.1-.2.4-.3.8 0 .4-.1 1-.1 1.7 0 .4 0 .8.1 1.1 0 .3.1.5.3.6.1.1.3.2.5.2s.3 0 .4-.1c.1-.1.2-.3.3-.5.1-.3.1-1.1.1-2.1 0-.6 0-1.1-.1-1.3-.1-.2-.2-.4-.3-.5-.1-.1-.3-.1-.4-.1m0-.4c.4 0 .9.1 1.3.3.4.2.7.6.9 1 .2.4.3.9.3 1.4 0 .7-.2 1.3-.6 1.8-.4.6-1.1.9-1.9.9-.8 0-1.4-.3-1.8-.8-.4-.5-.6-1.2-.6-1.9s.2-1.4.6-1.9c.4-.5 1-.8 1.8-.8m4.9 5.5l-1.7-4c-.2-.5-.4-.8-.5-.9-.1-.1-.2-.2-.4-.2v-.2h2.7v.2c-.2 0-.3 0-.4.1-.1.1-.1.2-.1.3 0 .1.1.4.2.8l.8 1.9.7-1.7c.2-.5.3-.8.3-1 0-.1 0-.2-.1-.3-.1-.1-.2-.1-.4-.1v-.2h1.7v.2c-.2 0-.3.1-.4.2-.1.1-.3.4-.5.9l-1.7 4h-.2zm5.6-3.3c0-.6 0-1-.1-1.2-.1-.2-.2-.4-.3-.5-.1-.1-.2-.1-.3-.1-.2 0-.3.1-.5.3-.2.3-.3.8-.3 1.3v.2h1.5zm1.3.4h-2.8c0 .7.2 1.2.5 1.6.3.3.6.5.9.5.2 0 .4-.1.6-.2.2-.1.4-.3.6-.7l.2.1c-.3.6-.6 1-.9 1.2-.3.2-.7.4-1.2.4-.8 0-1.3-.3-1.7-.9-.3-.5-.5-1.1-.5-1.8 0-.9.2-1.5.7-2.1.5-.5 1-.8 1.6-.8.5 0 1 .2 1.4.6.4.6.6 1.2.6 2.1m2.5-2.4v1.2c.3-.5.6-.9.9-1.1.3-.2.5-.3.7-.3.2 0 .4.1.5.2.1.1.2.3.2.5s-.1.4-.2.6c-.1.1-.3.2-.4.2-.2 0-.4-.1-.5-.2-.1-.1-.2-.2-.3-.2h-.1c-.1 0-.2 0-.3.1-.2.1-.3.3-.3.5-.1.4-.2.7-.2 1.2v1.9c0 .1.1.2.2.2s.2.1.4.1v.2h-2.8V20c.2 0 .4-.1.5-.2.1-.1.1-.4.1-.8v-3.4c0-.1-.1-.2-.2-.2s-.2-.1-.4-.1v-.2h2.2zm4.8 0v.7c.3-.3.5-.5.8-.6.2-.1.5-.2.8-.2.3 0 .6.1.8.3.2.2.4.4.4.7.1.2.1.6.1 1.2v2c0 .4 0 .6.1.7.1.1.2.2.4.2v.2h-2.6V20c.2 0 .3-.1.4-.2.1-.1.1-.3.1-.7V16c0-.1-.1-.2-.2-.3-.1-.1-.2-.1-.3-.1-.3 0-.6.2-.9.7v2.8c0 .4 0 .6.1.7.1.1.2.2.4.2v.2h-2.6V20c.2 0 .4-.1.5-.2.1-.1.1-.3.1-.7v-2.9c0-.4 0-.6-.1-.7-.1-.1-.2-.2-.4-.2v-.2h2.1z"/><path d="M147.3 15.1v.7c.3-.3.5-.5.8-.6.2-.1.5-.2.8-.2.3 0 .6.1.8.2.2.2.4.4.5.7.3-.3.6-.6.8-.7.3-.1.6-.2.8-.2.4 0 .6.1.9.2.2.2.4.4.4.6.1.3.1.7.1 1.2v2.1c0 .4 0 .6.1.7.1.1.2.2.4.2v.2H151V20c.2 0 .4-.1.5-.2.1-.1.1-.3.1-.7v-2.2c0-.5 0-.8-.1-.9 0-.1-.1-.2-.2-.3-.1-.1-.2-.1-.3-.1-.2 0-.3.1-.5.2s-.3.3-.5.5v2.8c0 .4 0 .6.1.7.1.1.2.2.5.2v.2h-2.7V20c.1 0 .3 0 .3-.1l.2-.2v-2.8c0-.5 0-.8-.1-.9 0-.1-.1-.2-.2-.3-.1-.1-.2-.1-.3-.1-.1 0-.3 0-.4.1-.2.1-.4.3-.6.6v2.8c0 .4 0 .6.1.7.1.1.2.2.4.2v.2h-2.7V20c.2 0 .4-.1.5-.2.1-.1.1-.3.1-.7v-2.9c0-.4 0-.6-.1-.7-.1-.1-.2-.2-.4-.2v-.2h2.6zm9.9 2c0-.6 0-1-.1-1.2-.1-.2-.2-.4-.3-.5-.1-.1-.2-.1-.3-.1-.2 0-.3.1-.5.3-.2.3-.3.8-.3 1.3v.2h1.5zm1.3.4h-2.8c0 .7.2 1.2.5 1.6.3.3.6.5.9.5.2 0 .4-.1.6-.2.2-.1.4-.3.6-.7l.2.1c-.3.6-.6 1-.9 1.2-.3.2-.7.4-1.2.4-.8 0-1.3-.3-1.7-.9-.3-.5-.5-1.1-.5-1.8 0-.9.2-1.5.7-2.1.5-.5 1-.8 1.6-.8.5 0 1 .2 1.4.6.4.6.6 1.2.6 2.1m2.3-2.4v.7c.3-.3.5-.5.8-.6.2-.1.5-.2.8-.2.3 0 .6.1.8.3.2.2.4.4.4.7.1.2.1.6.1 1.2v2c0 .4 0 .6.1.7.1.1.2.2.4.2v.2h-2.6V20c.2 0 .3-.1.4-.2.1-.1.1-.3.1-.7V16c0-.1-.1-.2-.2-.3-.1-.1-.2-.1-.3-.1-.3 0-.6.2-.9.7v2.8c0 .4 0 .6.1.7.1.1.2.2.4.2v.2h-2.6V20c.2 0 .4-.1.5-.2.1-.1.1-.3.1-.7v-2.9c0-.4 0-.6-.1-.7-.1-.1-.2-.2-.4-.2v-.2h2.1zm5.7-1.9v1.9h1.2v.5h-1.2v3.8c0 .1.1.2.1.2.1.1.1.1.2.1.2 0 .5-.2.7-.5l.2.1c-.3.7-.8 1.1-1.4 1.1-.3 0-.6-.1-.8-.3-.2-.2-.4-.4-.4-.6 0-.1-.1-.5-.1-1v-2.8h-.7v-.2c.5-.3.9-.7 1.2-1l.9-1.2h.1z"/></svg>